<?xml version="1.0" standalone="no"?>
<!DOCTYPE svg PUBLIC "-//W3C//DTD SVG 1.1//EN" "http://www.w3.org/Graphics/SVG/1.1/DTD/svg11.dtd" >
<svg xmlns="http://www.w3.org/2000/svg">
<metadata>Generated by IcoMoon</metadata>
<defs>
<font id="sportspress" horiz-adv-x="512">
<font-face units-per-em="512" ascent="480" descent="-32" />
<missing-glyph horiz-adv-x="512" />
<glyph unicode="&#x20;" horiz-adv-x="256" d="" />
<glyph unicode="&#x30;" glyph-name="checkbox" d="M435.2 435.2h-358.4c-14.16 0-25.6-11.44-25.6-25.6v-358.4c0-14.16 11.44-25.6 25.6-25.6h358.4c14.16 0 25.6 11.44 25.6 25.6v358.4c0 14.16-11.44 25.6-25.6 25.6zM409.6 76.8h-307.2v307.2h307.2v-307.2z" />
<glyph unicode="&#x31;" glyph-name="checkbox-filled" d="M435.2 435.2h-358.4c-14.16 0-25.6-11.44-25.6-25.6v-358.4c0-14.16 11.44-25.6 25.6-25.6h358.4c14.16 0 25.6 11.44 25.6 25.6v358.4c0 14.16-11.44 25.6-25.6 25.6z" />
<glyph unicode="&#x4c;" glyph-name="libero" d="M435.2 25.6h-358.4c-14.16 0-25.6 11.44-25.6 25.6v358.4c0 14.16 11.44 25.6 25.6 25.6s25.6-11.44 25.6-25.6v-332.8h332.8c14.16 0 25.6-11.44 25.6-25.6s-11.44-25.6-25.6-25.6z" />
<glyph unicode="&#xe600;" glyph-name="soccerball-alt" d="M256 6.4c-127.28 0-230.4 103.12-230.4 230.4s103.12 230.4 230.4 230.4 230.4-103.12 230.4-230.4-103.12-230.4-230.4-230.4zM401.040 381.84c-18.32 18.24-40.080 32.88-65.44 43.6s-51.84 16.16-79.6 16.16-54.24-5.36-79.6-16.16-47.2-25.28-65.44-43.6-32.88-40.080-43.6-65.44-16.16-51.84-16.16-79.6 5.36-54.24 16.16-79.6 25.28-47.2 43.6-65.44c18.32-18.24 40.080-32.88 65.44-43.6s51.84-16.16 79.6-16.16 54.24 5.36 79.6 16.16 47.2 25.36 65.44 43.6c18.24 18.32 32.88 40.080 43.6 65.44s16.16 51.84 16.16 79.6-5.36 54.24-16.16 79.6-25.36 47.2-43.6 65.44zM332.8 134.4l-25.6-64v-5.2c-16.8-5.040-33.84-7.6-51.2-7.6s-34.4 2.56-51.2 7.6v5.2l-25.6 64h-70c-18.96 27.2-29.44 57.2-31.6 90l50.4 38v76.8l-14 6.8c18.64 24 42.16 42.24 70.4 54.8l71.6-36 71.6 36c28.24-12.56 51.6-30.8 70-54.8l-13.6-6.8v-76.8l50.4-38c-2.16-32.8-12.64-62.8-31.6-90h-70zM256 300.8l-64-44 24.4-70.8h79.2l24.4 70.8-64 44z" />
<glyph unicode="&#xe601;" glyph-name="baseball-icon" d="M371.52 96.32c0 0 0 0 0 0s-0.080 0.080-0.080 0.080c0 0 0 0 0 0-0.080 0.080-0.16 0.24-0.32 0.32 0 0 0 0 0 0s-0.080 0.080-0.080 0.080c0 0 0 0 0 0-0.080 0.080-0.16 0.16-0.16 0.24 0 0 0 0 0 0s-0.080 0.080-0.080 0.080c0 0 0 0 0 0s-0.080 0.080-0.080 0.080c0 0 0 0 0 0s-0.080 0.080-0.080 0.080c0 0 0 0 0 0s-0.080 0.080-0.080 0.080c0 0 0 0 0 0s-0.080 0.080-0.080 0.080c0 0 0 0 0 0s-0.080 0.080-0.080 0.080v0c0 0-0.080 0.080-0.080 0.080s0 0 0 0-0.080 0.080-0.080 0.080c0 0 0 0 0 0s-0.080 0.080-0.080 0.080c0 0 0 0 0 0s-0.080 0.080-0.080 0.080c0 0 0 0 0 0s-0.080 0.080-0.080 0.080c0 0 0 0 0 0s0 0-0.080 0.080c0 0 0 0 0 0.080 0 0 0 0.080-0.080 0.080 0 0 0 0 0 0s-0.080 0.080-0.080 0.080c0 0 0 0-0.080 0.080 0 0 0 0-0.080 0.080 0 0 0 0-0.080 0.080 0 0 0 0-0.080 0.080 0 0 0 0-0.080 0.080 0 0 0 0-0.080 0.080 0 0-0.080 0.080-0.080 0.080s0 0 0 0 0 0.080-0.080 0.080c0 0 0 0 0 0s0 0-0.080 0.080c0 0 0 0 0 0-0.080 0.080-0.16 0.16-0.16 0.24 0 0 0 0 0 0s0 0.080-0.080 0.080c0 0 0 0 0 0s0 0.080-0.080 0.080-0.080 0.080-0.16 0.16v0c0 0-0.080 0.080-0.080 0.080s0 0 0 0-0.080 0.080-0.080 0.080v0c-0.080 0.080-0.16 0.16-0.24 0.24 0 0 0 0 0 0s-0.080 0.080-0.080 0.080c0 0 0 0 0 0-0.080 0.080-0.16 0.24-0.32 0.32v0c-0.88 0.96-1.76 2-2.56 2.96l5.36 4.48c-4.96 6-9.6 12.32-13.76 18.88l-6.48-4.32c-1.36 2-2.64 4.080-3.92 6.16v0c0 0 0 0.080-0.080 0.080 0 0 0 0 0 0-0.080 0.080-0.16 0.24-0.24 0.32 0 0 0 0 0 0s0 0.080-0.080 0.080c0 0 0 0 0 0 0 0.080-0.080 0.080-0.080 0.16 0 0 0 0 0 0s0 0.080 0 0.080c0 0 0 0 0 0.080 0 0 0 0.080 0 0.080s0 0 0 0.080c0 0 0 0 0 0.080 0 0 0 0.080-0.080 0.080 0 0 0 0.080-0.080 0.080 0 0 0 0.080 0 0.080s0 0 0 0.080c0 0 0 0 0 0.080 0 0 0 0 0 0.080 0 0 0 0.080-0.080 0.080 0 0 0 0 0 0s-0.080 0.080-0.080 0.080c0 0 0 0 0 0s0 0.080-0.080 0.080c0 0 0 0 0 0s0 0.080-0.080 0.080c0 0 0 0 0 0s-0.080 0.080-0.080 0.080c0 0 0 0 0 0s-0.080 0.080-0.080 0.080c0 0 0 0 0 0s0 0.080-0.080 0.080c0 0 0 0 0 0s-0.080 0.080-0.080 0.080c0 0.080-0.080 0.080-0.080 0.16 0 0 0 0 0 0s-0.080 0.080-0.080 0.080c0 0 0 0 0 0-0.080 0.080-0.16 0.24-0.24 0.4 0 0 0 0 0 0 0 0.080-0.080 0.080-0.080 0.080s0 0 0 0c-0.080 0.16-0.16 0.24-0.24 0.4 0 0 0 0 0 0-2.96 4.96-5.68 10.080-8.16 15.36l7.52 3.6c-2.8 6.24-5.36 12.64-7.52 19.2l-7.92-2.72c-1.68 4.96-3.2 10-4.56 15.040 0 0 0 0 0 0 0 0.16-0.080 0.32-0.080 0.4 0 0 0 0 0 0 0 0.16-0.080 0.32-0.080 0.4 0 0 0 0 0 0 0 0.16-0.080 0.24-0.080 0.4 0 0 0 0 0 0 0 0.16-0.080 0.32-0.080 0.4 0 0 0 0 0 0 0 0.080 0 0.080 0 0.16 0 0 0 0 0 0 0 0.080-0.080 0.16-0.080 0.32 0 0 0 0 0 0 0 0.080 0 0.080 0 0.16 0 0 0 0 0 0 0 0.080-0.080 0.16-0.080 0.32 0 0 0 0 0 0 0 0.080 0 0.080 0 0.16 0 0 0 0 0 0 0 0.16-0.080 0.24-0.080 0.4 0 0 0 0 0 0 0 0.16-0.080 0.32-0.080 0.4 0 0 0 0 0 0 0 0.16-0.080 0.32-0.080 0.4 0 0 0 0 0 0 0 0.16-0.080 0.32-0.080 0.4 0 0 0 0 0 0 0 0.16-0.080 0.32-0.080 0.4 0 0 0 0 0 0-0.56 2.56-1.12 5.2-1.6 7.84l8.56 1.6c-1.12 6.48-1.92 13.040-2.4 19.68l-6.88-0.48v28.48l6.88-0.48c0.48 6.64 1.28 13.2 2.4 19.68l-8.56 1.6c0.48 2.64 1.040 5.28 1.6 7.84 0 0 0 0 0 0 0 0.16 0.080 0.32 0.080 0.4 0 0 0 0 0 0 0 0.16 0.080 0.32 0.080 0.4 0 0 0 0 0 0 0 0.16 0.080 0.32 0.080 0.4 0 0 0 0 0 0 0 0.16 0.080 0.32 0.080 0.4 0 0 0 0 0 0 0 0.16 0.080 0.24 0.080 0.4 0 0 0 0 0 0 0 0.080 0 0.080 0 0.16 0 0 0 0 0 0 0 0.080 0.080 0.16 0.080 0.32 0 0 0 0 0 0 0 0.080 0 0.080 0 0.16v0c0 0.080 0.080 0.16 0.080 0.32 0 0 0 0 0 0 0 0.080 0 0.080 0 0.16 0 0 0 0 0 0 0 0.16 0.080 0.32 0.080 0.4 0 0 0 0 0 0 0 0.16 0.080 0.24 0.080 0.4 0 0 0 0 0 0 0 0.16 0.080 0.32 0.080 0.4 0 0 0 0 0 0 0 0.16 0.080 0.32 0.080 0.4 0 0 0 0 0 0 1.28 5.12 2.8 10.16 4.56 15.040l7.92-2.72c2.16 6.56 4.64 12.96 7.52 19.2l-7.52 3.6c2.48 5.28 5.2 10.4 8.16 15.36 0 0 0 0 0 0 0.080 0.16 0.16 0.24 0.24 0.4 0 0 0 0 0 0 0 0.080 0.080 0.080 0.080 0.080s0 0 0 0c0.080 0.080 0.16 0.24 0.24 0.4 0 0 0 0 0 0s0.080 0.080 0.080 0.080c0 0 0 0 0 0 0 0.080 0.080 0.080 0.080 0.16v0c0 0 0.080 0.080 0.080 0.080s0 0 0 0 0 0.080 0.080 0.080c0 0 0 0 0 0s0.080 0.080 0.080 0.080c0 0 0 0 0 0s0.080 0.080 0.080 0.080c0 0 0 0 0 0s0 0.080 0.080 0.080c0 0 0 0 0 0s0 0.080 0.080 0.080c0 0 0 0 0 0s0.080 0.080 0.080 0.080c0 0 0 0 0 0s0 0.080 0.080 0.080c0 0 0 0 0 0.080 0 0 0 0.080 0 0.080s0 0 0 0.080c0 0 0 0.080 0 0.080s0 0.080 0.080 0.080c0 0 0 0.080 0.080 0.080 0 0 0 0 0 0.080 0 0 0 0 0 0.080 0 0 0 0.080 0 0.080s0 0 0 0.080c0 0 0 0.080 0 0.080s0 0 0 0c0 0.080 0.080 0.080 0.080 0.16 0 0 0 0 0 0s0 0.080 0.080 0.080c0 0 0 0 0 0 0.080 0.080 0.16 0.24 0.24 0.32 0 0 0 0 0 0s0 0.080 0.080 0.080v0c1.28 2.080 2.56 4.080 3.92 6.16l6.48-4.32c4.24 6.56 8.8 12.88 13.76 18.88l-5.36 4.48c0.88 1.040 1.68 2 2.56 2.96v0c0.080 0.080 0.16 0.24 0.32 0.32 0 0 0 0 0 0s0.080 0.080 0.080 0.080c0 0 0 0 0 0 0.080 0.080 0.16 0.16 0.24 0.24v0c0 0 0.080 0.080 0.080 0.080s0 0 0 0 0.080 0.080 0.080 0.080v0c0.080 0.080 0.080 0.080 0.16 0.16 0 0 0 0.080 0.080 0.080 0 0 0 0 0 0s0 0.080 0.080 0.080c0 0 0 0 0 0 0.080 0.080 0.16 0.16 0.16 0.24 0 0 0 0 0 0s0 0.080 0.080 0.080c0 0 0 0 0 0s0 0.080 0.080 0.080c0 0 0 0 0 0s0.080 0.080 0.080 0.080c0 0 0 0 0.080 0.080 0 0 0 0 0.080 0.080 0 0 0 0 0.080 0.080 0 0 0 0 0.080 0.080 0 0 0 0 0.080 0.080 0 0 0 0 0.080 0.080 0 0 0.080 0.080 0.080 0.080s0 0 0 0 0.080 0.080 0.080 0.080c0 0 0 0 0 0.080 0 0 0 0.080 0.080 0.080 0 0 0 0 0 0s0.080 0.080 0.080 0.080c0 0 0 0 0 0s0.080 0.080 0.080 0.080c0 0 0 0 0 0s0.080 0.080 0.080 0.080c0 0 0 0 0 0s0.080 0.080 0.080 0.080c0 0 0 0 0 0s0.080 0.080 0.080 0.080v0c0 0 0.080 0.080 0.080 0.080s0 0 0 0 0.080 0.080 0.080 0.080c0 0 0 0 0 0s0.080 0.080 0.080 0.080c0 0 0 0 0 0s0.080 0.080 0.080 0.080c0 0 0 0 0 0s0.080 0.080 0.080 0.080c0 0 0 0 0 0s0.080 0.080 0.080 0.080c0 0 0 0 0 0 0.080 0.080 0.16 0.16 0.16 0.24 0 0 0 0 0 0s0.080 0.080 0.080 0.080c0 0 0 0 0 0 0.080 0.080 0.16 0.24 0.32 0.32 0 0 0 0 0 0s0.080 0.080 0.080 0.080c0 0 0 0 0 0 3.44 3.68 7.040 7.2 10.72 10.64-33.76 30.56-77.92 48.4-126.24 48.4s-92.48-17.84-126.24-47.28c3.68-3.36 7.28-6.96 10.72-10.64 0 0 0 0 0 0s0.080-0.080 0.080-0.080c0 0 0 0 0 0 0.080-0.080 0.16-0.24 0.32-0.32 0 0 0 0 0 0s0.080-0.080 0.080-0.080c0 0 0 0 0 0 0.080-0.080 0.16-0.16 0.16-0.24 0 0 0 0 0 0s0.080-0.080 0.080-0.080c0 0 0 0 0 0s0.080-0.080 0.080-0.080c0 0 0 0 0 0s0.080-0.080 0.080-0.080c0 0 0 0 0 0s0.080-0.080 0.080-0.080c0 0 0 0 0 0s0.080-0.080 0.080-0.080c0 0 0 0 0 0s0.080-0.080 0.080-0.080v0c0 0 0.080-0.080 0.080-0.080s0 0 0 0 0.080-0.080 0.080-0.080c0 0 0 0 0 0s0.080-0.080 0.080-0.080c0 0 0 0 0 0s0.080-0.080 0.080-0.080c0 0 0 0 0 0s0.080-0.080 0.080-0.080c0 0 0 0 0 0s0-0.080 0.080-0.080c0 0 0 0 0-0.080 0 0 0.080-0.080 0.080-0.080s0 0 0 0 0.080-0.080 0.080-0.080c0 0 0 0 0.080-0.080 0 0 0 0 0.080-0.080 0 0 0 0 0.080-0.080 0 0 0 0 0.080-0.080 0 0 0 0 0.080-0.080 0 0 0 0 0.080-0.080 0 0 0.080-0.080 0.080-0.080s0 0 0 0 0-0.080 0.080-0.080c0 0 0 0 0 0s0-0.080 0.080-0.080c0 0 0 0 0 0 0.080-0.080 0.16-0.16 0.16-0.24 0 0 0 0 0 0s0-0.080 0.080-0.080c0 0 0 0 0 0s0-0.080 0.080-0.080v0c0.080-0.080 0.080-0.080 0.16-0.16v0c0 0 0.080-0.080 0.080-0.080s0 0 0 0 0.080-0.080 0.080-0.080v0c0.080-0.080 0.16-0.16 0.24-0.24 0 0 0 0 0 0s0.080-0.080 0.080-0.080c0 0 0 0 0 0 0.080-0.080 0.16-0.24 0.32-0.32v0c0.88-0.96 1.76-2 2.56-2.96l-5.36-4.48c4.96-6 9.6-12.32 13.76-18.88l6.48 4.32c1.36-2 2.64-4.080 3.92-6.16v0c0 0 0-0.080 0.080-0.080 0 0 0 0 0 0 0.080-0.080 0.16-0.24 0.24-0.32 0 0 0 0 0 0s0-0.080 0.080-0.080c0 0 0 0 0 0 0-0.080 0.080-0.080 0.080-0.16 0 0 0 0 0 0s0-0.080 0.080-0.080c0 0 0 0 0-0.080 0 0 0-0.080 0-0.080s0 0 0-0.080c0 0 0 0 0-0.080 0 0 0-0.080 0.080-0.080 0 0 0-0.080 0.080-0.080 0 0 0-0.080 0-0.080s0 0 0-0.080c0 0 0-0.080 0-0.080s0 0 0-0.080c0 0 0-0.080 0.080-0.080 0 0 0 0 0 0s0.080-0.080 0.080-0.080c0 0 0 0 0 0s0-0.080 0.080-0.080c0 0 0 0 0 0s0-0.080 0.080-0.080c0 0 0 0 0 0s0.080-0.080 0.080-0.080c0 0 0 0 0 0s0.080-0.080 0.080-0.080c0 0 0 0 0 0s0-0.080 0.080-0.080c0 0 0 0 0 0s0.080-0.080 0.080-0.080v0c0-0.080 0.080-0.080 0.080-0.16 0 0 0 0 0 0s0.080-0.080 0.080-0.080c0 0 0 0 0 0 0.080-0.080 0.16-0.24 0.24-0.4 0 0 0 0 0 0 0-0.080 0.080-0.080 0.080-0.080s0 0 0 0c0.080-0.16 0.16-0.24 0.24-0.4 0 0 0 0 0 0 2.96-4.96 5.68-10.080 8.16-15.36l-7.52-3.6c2.8-6.24 5.36-12.64 7.52-19.2l7.92 2.72c1.68-4.96 3.2-10 4.56-15.040 0 0 0 0 0 0 0-0.16 0.080-0.32 0.080-0.4 0 0 0 0 0 0 0-0.16 0.080-0.32 0.080-0.4 0 0 0 0 0 0 0-0.16 0.080-0.24 0.080-0.4 0 0 0 0 0 0 0-0.16 0.080-0.32 0.080-0.4 0 0 0 0 0 0 0-0.080 0-0.080 0-0.16 0 0 0 0 0 0 0-0.080 0.080-0.16 0.080-0.32v0c0-0.080 0-0.080 0-0.16 0 0 0 0 0 0 0-0.080 0.080-0.16 0.080-0.32 0 0 0 0 0 0 0-0.080 0-0.080 0-0.16 0 0 0 0 0 0 0-0.16 0.080-0.24 0.080-0.4 0 0 0 0 0 0 0-0.16 0.080-0.32 0.080-0.4 0 0 0 0 0 0 0-0.16 0.080-0.32 0.080-0.4 0 0 0 0 0 0 0-0.16 0.080-0.32 0.080-0.4 0 0 0 0 0 0 0-0.16 0.080-0.32 0.080-0.4 0 0 0 0 0 0 0.56-2.56 1.12-5.2 1.6-7.84l-8.56-1.6c1.12-6.48 1.92-13.040 2.4-19.68l6.88 0.48v-28.48l-6.88 0.48c-0.48-6.64-1.28-13.2-2.4-19.68l8.56-1.6c-0.48-2.64-1.040-5.28-1.6-7.84 0 0 0 0 0 0 0-0.16-0.080-0.32-0.080-0.4 0 0 0 0 0 0 0-0.16-0.080-0.32-0.080-0.4 0 0 0 0 0 0 0-0.16-0.080-0.32-0.080-0.4 0 0 0 0 0 0 0-0.16-0.080-0.32-0.080-0.4 0 0 0 0 0 0 0-0.16-0.080-0.32-0.080-0.4 0 0 0 0 0 0 0-0.080 0-0.080 0-0.16 0 0 0 0 0 0 0-0.080-0.080-0.16-0.080-0.32 0 0 0 0 0 0 0-0.080 0-0.080 0-0.16 0 0 0 0 0 0 0-0.080-0.080-0.16-0.080-0.32 0 0 0 0 0 0 0-0.080 0-0.080 0-0.16 0 0 0 0 0 0 0-0.16-0.080-0.32-0.080-0.4 0 0 0 0 0 0 0-0.16-0.080-0.32-0.080-0.4 0 0 0 0 0 0 0-0.16-0.080-0.32-0.080-0.4 0 0 0 0 0 0 0-0.16-0.080-0.32-0.080-0.4 0 0 0 0 0 0-1.28-5.12-2.8-10.16-4.56-15.040l-7.92 2.72c-2.16-6.56-4.64-12.96-7.52-19.2l7.52-3.6c-2.48-5.28-5.2-10.4-8.16-15.36 0 0 0 0 0 0-0.080-0.16-0.16-0.24-0.24-0.4 0 0 0 0 0 0 0-0.080-0.080-0.080-0.080-0.080s0 0 0 0c-0.080-0.080-0.16-0.24-0.24-0.4 0 0 0 0 0 0s-0.080-0.080-0.080-0.080c0 0 0 0 0 0 0-0.080-0.080-0.080-0.080-0.16 0 0-0.080-0.080-0.080-0.080s0 0 0 0 0-0.080-0.080-0.080c0 0 0 0 0 0s-0.080-0.080-0.080-0.080c0 0 0 0 0 0s-0.080-0.080-0.080-0.080c0 0 0 0 0 0s0-0.080-0.080-0.080c0 0 0 0 0 0s0-0.080-0.080-0.080c0 0 0 0 0 0s-0.080-0.080-0.080-0.080c0 0 0 0 0 0s0-0.080-0.080-0.080c0 0 0 0 0-0.080 0 0 0 0 0-0.080 0 0 0 0 0-0.080 0 0 0-0.080 0-0.080s0-0.080-0.080-0.080c0 0 0-0.080-0.080-0.080 0 0 0 0 0-0.080 0 0 0 0 0-0.080 0 0 0-0.080 0-0.080s0 0 0-0.080c0 0 0-0.080-0.080-0.080 0 0 0 0 0 0 0-0.080-0.080-0.080-0.080-0.16 0 0 0 0 0 0s0-0.080-0.080-0.080c0 0 0 0 0 0-0.080-0.080-0.16-0.24-0.24-0.32 0 0 0 0 0 0s0-0.080-0.080-0.080v0c-1.28-2.080-2.56-4.080-3.92-6.16l-6.48 4.32c-4.24-6.56-8.8-12.88-13.76-18.88l5.36-4.48c-0.88-1.040-1.68-2-2.56-2.96v0c-0.080-0.080-0.16-0.24-0.32-0.32 0 0 0 0 0 0s-0.080-0.080-0.080-0.080c0 0 0 0 0 0-0.080-0.080-0.16-0.16-0.24-0.24v0c0 0-0.080-0.080-0.080-0.080s0 0 0 0-0.080-0.080-0.080-0.080v0c-0.080-0.080-0.080-0.080-0.16-0.16v0c0 0-0.080-0.080-0.080-0.080s0 0 0 0 0-0.080-0.080-0.080c0 0 0 0 0 0-0.080-0.080-0.16-0.16-0.16-0.24 0 0 0 0 0 0s0 0-0.080-0.080c0 0 0 0 0 0s0-0.080-0.080-0.080c0 0 0 0 0 0s-0.080-0.080-0.080-0.080c0 0 0 0-0.080-0.080 0 0 0 0-0.080-0.080 0 0 0 0-0.080-0.080 0 0 0 0-0.080-0.080 0 0 0 0-0.080-0.080 0 0 0 0-0.080-0.080 0 0-0.080-0.080-0.080-0.080s0 0 0 0-0.080-0.080-0.080-0.080c0 0 0 0 0-0.080 0 0 0 0-0.080-0.080 0 0 0 0 0 0s-0.080-0.080-0.080-0.080c0 0 0 0 0 0s-0.080-0.080-0.080-0.080c0 0 0 0 0 0s-0.080-0.080-0.080-0.080c0 0 0 0 0 0s-0.080-0.080-0.080-0.080c0 0 0 0 0 0s-0.080-0.080-0.080-0.080v0c0 0-0.080-0.080-0.080-0.080s0 0 0 0-0.080-0.080-0.080-0.080c0 0 0 0 0 0s-0.080-0.080-0.080-0.080c0 0 0 0 0 0s-0.080-0.080-0.080-0.080c0 0 0 0 0 0s-0.080-0.080-0.080-0.080c0 0 0 0 0 0s-0.080-0.080-0.080-0.080c0 0 0 0 0 0-0.080-0.080-0.16-0.16-0.16-0.24 0 0 0 0 0 0s-0.080-0.080-0.080-0.080c0 0 0 0 0 0-0.080-0.080-0.16-0.24-0.32-0.32 0 0 0 0 0 0s-0.080-0.080-0.080-0.080c0 0 0 0 0 0-3.44-3.68-7.040-7.2-10.72-10.64 33.76-30.56 77.92-48.4 126.24-48.4s92.48 17.84 126.24 47.28c-3.76 3.44-7.28 6.96-10.72 10.64v0zM144.72 134l-6.8 4.56c4.56 6.72 8.64 13.92 12.080 21.28l6.96-3.28c0.64 1.36 1.2 2.72 1.76 4.080 1.92 4.56 3.68 9.2 5.2 13.84l-7.2 2.48c2.64 7.68 4.72 15.6 6.24 23.6l7.2-1.36c1.040 6.080 1.76 12.16 2.24 18.32l-7.2 0.56c0.32 4.080 0.4 8.16 0.4 12.24s-0.16 8.16-0.4 12.24l7.2 0.56c-0.4 6.16-1.2 12.32-2.24 18.32l-7.2-1.36c-1.44 8-3.6 15.92-6.24 23.6l7.2 2.48c-1.52 4.64-3.28 9.28-5.2 13.84-0.56 1.36-1.2 2.72-1.76 4.080l-6.96-3.28c-3.44 7.36-7.52 14.48-12.080 21.28l6.8 4.56c-3.92 6.16-8.24 12.080-12.96 17.76l-6.88-5.84c-4.72 5.6-9.84 10.96-15.28 15.84-28.48-33.28-45.6-76.64-45.6-124s17.12-90.72 45.52-124.16c5.44 4.96 10.56 10.24 15.28 15.84l6.88-5.84c4.8 5.68 9.12 11.6 13.040 17.76v0zM402.48 354.56c-5.44-4.96-10.56-10.24-15.28-15.84l-6.88 5.84c-4.72-5.68-9.040-11.6-12.96-17.76l6.8-4.56c-4.56-6.72-8.64-13.92-12.080-21.28l-6.96 3.28c-0.64-1.36-1.2-2.72-1.76-4.080-1.92-4.56-3.68-9.2-5.2-13.84l7.2-2.48c-2.64-7.68-4.72-15.6-6.24-23.6l-7.2 1.36c-1.040-6.080-1.76-12.16-2.24-18.32l7.2-0.56c-0.32-4.080-0.4-8.16-0.4-12.24s0.16-8.16 0.4-12.24l-7.2-0.56c0.4-6.16 1.2-12.32 2.24-18.32l7.2 1.36c1.44-8 3.6-15.92 6.24-23.6l-7.2-2.48c1.52-4.64 3.28-9.28 5.2-13.84 0.56-1.36 1.2-2.72 1.76-4.080l6.96 3.28c3.44-7.36 7.52-14.48 12.080-21.28l-6.8-4.56c3.92-6.16 8.24-12.080 12.96-17.76l6.88 5.84c4.72-5.6 9.84-10.96 15.28-15.84 28.4 33.44 45.52 76.8 45.52 124.16s-17.12 90.56-45.52 124z" />
<glyph unicode="&#xe602;" glyph-name="basketball" d="M460.4 256c-2.8 42.080-19.12 80.4-44.64 110.72-3.040-2.56-5.92-5.28-8.72-8.16-27.76-27.76-44.32-63.84-47.28-102.56h100.64zM395.6 387.36c-30.8 27.12-70.4 44.56-114 47.44v-178.8h49.2c3.44 52.24 27.84 98.8 64.8 131.36zM130.64 358.56c-2.8 2.8-5.76 5.52-8.72 8.16-25.6-30.32-41.92-68.64-44.72-110.72h100.64c-2.96 38.8-19.44 74.8-47.2 102.56zM206.8 256h49.2v178.8c-43.6-2.88-83.2-20.24-114-47.44 36.96-32.56 61.36-79.12 64.8-131.36zM407.040 127.76c2.8-2.8 5.76-5.52 8.72-8.16 25.52 30.32 41.84 68.72 44.64 110.72h-100.72c3.040-38.72 19.52-74.72 47.36-102.56zM330.8 230.4h-49.2v-178.8c43.6 2.88 83.2 20.24 114 47.44-36.96 32.56-61.36 79.12-64.8 131.36zM77.2 230.4c2.8-42.080 19.040-80.4 44.64-110.72 3.040 2.56 5.92 5.28 8.72 8.16 27.76 27.76 44.32 63.84 47.28 102.64 0.080-0.080-100.64-0.080-100.64-0.080zM142 99.040c30.8-27.12 70.4-44.56 114-47.44v178.8h-49.2c-3.44-52.24-27.84-98.8-64.8-131.36z" />
<glyph unicode="&#xe603;" glyph-name="golfball" d="M383.6 282c0-14.080 11.52-25.6 25.6-25.6 0 0 0 0 0 0-8-19.12-19.44-36.48-33.6-51.2h-43.28c0-10.4 6.32-19.44 15.28-23.44-26.4-17.52-58-27.76-92.080-27.76s-65.68 10.24-92.080 27.76c8.96 4 15.28 12.96 15.28 23.44h-43.28c-14.16 14.72-25.6 32.080-33.6 51.2 0 0 0 0 0 0 14.080 0 25.6 11.52 25.6 25.6h-33.92c-2.88 12.32-4.48 25.2-4.48 38.4 0 91.92 74.48 166.4 166.4 166.4s166.4-74.48 166.4-166.4c0-13.2-1.52-26.080-4.48-38.4h-33.76zM306.8 256.4c14.080 0 25.6 11.52 25.6 25.6h-51.2c0-14.080 11.52-25.6 25.6-25.6zM255.6 179.6c14.080 0 25.6 11.52 25.6 25.6h-51.2c0-14.080 11.52-25.6 25.6-25.6zM204.4 256.4c14.080 0 25.6 11.52 25.6 25.6h-51.2c0-14.080 11.52-25.6 25.6-25.6zM153.2 333.2c14.080 0 25.6 11.52 25.6 25.6h-51.2c0-14.080 11.52-25.6 25.6-25.6zM178.8 435.6c0-14.080 11.52-25.6 25.6-25.6s25.6 11.52 25.6 25.6h-51.2zM230 358.8c0-14.080 11.52-25.6 25.6-25.6s25.6 11.52 25.6 25.6h-51.2zM281.2 435.6c0-14.080 11.52-25.6 25.6-25.6s25.6 11.52 25.6 25.6h-51.2zM332.4 358.8c0-14.080 11.52-25.6 25.6-25.6s25.6 11.52 25.6 25.6h-51.2zM310.88 136.48l-29.68-59.28v-102.4h-51.2v102.4l-29.68 59.28c17.52-5.28 36.080-8.080 55.28-8.080s37.76 2.88 55.28 8.080z" />
<glyph unicode="&#xe604;" glyph-name="cricketball" d="M233.44 26.88l226.080 226.080c6.56-59.68-13.040-121.6-58.72-167.36s-107.68-65.28-167.36-58.72zM151.92 53.92c-14.56 8.56-28.24 19.12-40.8 31.68-12.48 12.48-23.040 26.24-31.68 40.8l280.64 280.48c14.56-8.56 28.24-19.12 40.8-31.68 12.48-12.48 23.040-26.24 31.68-40.8l-280.64-280.48zM52.48 207.84c-6.56 59.68 12.96 121.68 58.72 167.36s107.68 65.28 167.36 58.72l-226.080-226.080zM309.040 428.24c9.12-2.48 18.16-5.52 26.96-9.28l-268.56-268.56c-3.76 8.8-6.8 17.84-9.28 26.96l250.88 250.88zM444.56 310.4c3.76-8.8 6.8-17.84 9.28-26.96l-250.88-250.88c-9.12 2.48-18.16 5.52-26.96 9.28l268.56 268.56z" />
<glyph unicode="&#xe605;" glyph-name="bowling" d="M368.4 332.8c-6.64 10.64-10 23.44-10 38.4 0 12.24 3.36 21.76 10.24 28.4s16.16 10 28.16 10 21.44-3.36 28.16-10 10.24-16.16 10.24-28.4c0-14.96-3.36-27.76-10-38.4h-56.8zM382 281.6c1.36 4.8 2 9.040 2 12.8 0 4.56-0.56 8.8-1.6 12.8h28.8c-1.040-4-1.6-8.24-1.6-12.8 0-3.44 0.64-7.76 2-12.8h-29.6zM371.6 256h50.4c2.16-4.24 7.36-14 15.6-29.2s14.24-27.36 17.76-36.4 5.44-17.040 5.44-24c0-12-0.16-21.84-0.4-29.6s-0.96-18-2.24-30.8-3.36-23.84-6.56-32.96-7.2-16.48-12-21.76h-85.2c2.64 27.44 4 63.2 4 107.2 0 20.56-2.4 40.16-7.2 58.8 0.56 1.040 3.44 6.56 8.8 16.4 5.36 9.76 9.2 17.28 11.6 22.32zM204.8 25.6c-5.84 5.84-10.72 14.56-14.56 26.24s-6.48 25.36-7.84 41.2-2.24 28.56-2.56 38-0.64 21.2-0.64 35.36c0 8 1.84 16.64 5.6 26s9.76 21.040 18 35.2c8.24 14.16 13.6 23.6 16 28.4h74.4c2.4-4.56 7.76-13.92 16-28.16s14.24-26.080 18-35.36 5.6-18 5.6-26c0-14.16-0.16-25.92-0.64-35.36s-1.28-22.16-2.56-38-3.92-29.6-7.84-41.2-8.72-20.48-14.56-26.32h-102.4zM218.4 332.8c-2.96 5.040-5.2 9.36-6.8 12.8s-3.12 8.64-4.64 15.6-2.16 14.56-2.16 22.8c0 14.16 4.96 26.24 15.040 36.16s22 15.040 36.16 15.040c14.16 0 26.24-4.96 36.16-15.040s15.040-22 15.040-36.16c0-8.24-0.72-15.84-2.24-22.8s-3.040-12.16-4.64-15.6-3.84-7.76-6.8-12.8h-75.12zM157.6 51.2h-85.2c-4.8 5.36-8.8 12.64-12 21.76s-5.44 20.16-6.56 32.96-1.92 23.040-2.24 30.8-0.4 17.68-0.4 29.68c0 6.96 1.76 14.96 5.44 24s9.52 21.2 17.76 36.4 13.44 24.96 15.6 29.2h50.4c1.84-3.76 3.92-7.76 6.24-12s4.8-9.040 7.6-14.4c2.8-5.36 4.96-9.44 6.56-12.4-4.8-18.64-7.2-38.24-7.2-58.8 0-44.24 1.36-80 4-107.2zM100.4 281.6c1.36 4.8 2 9.040 2 12.8 0 4.56-0.56 8.8-1.6 12.8h28.8c-1.040-4-1.6-8.24-1.6-12.8 0-3.76 0.64-8 2-12.8h-29.6zM86.8 332.8c-6.64 10.64-10 23.44-10 38.4 0 12.24 3.36 21.76 10.24 28.4s16.16 10 28.16 10 21.44-3.36 28.16-10 10.24-16.16 10.24-28.4c0-14.96-3.36-27.76-10-38.4h-56.8zM228.8 281.6c1.040 4.8 1.6 9.040 1.6 12.8 0 4.56-0.4 8.8-1.2 12.8h53.6c-0.8-4-1.2-8.24-1.2-12.8 0-3.76 0.56-8 1.6-12.8h-54.4z" />
<glyph unicode="&#xe606;" glyph-name="ice-hockey" d="M397.2 284.64l-104.24-210.56c-6.16-12.4-22.8-22.88-36.88-22.88h-153.76c-13.92 0-25.52 11.44-25.52 25.6v25.68c0 14.24 11.36 25.6 25.36 25.6h128.24l96.64 192.4 70.16-35.84zM408.56 307.52l38.080 76.64c6.96 14.080 1.44 31.12-12.56 38.16l-19.44 9.76c-13.92 7.040-30.88 1.52-37.76-12.24l-38.4-76.56 70.080-35.76zM166.4 179.2c21.2 0 38.4 17.2 38.4 38.4s-17.2 38.4-38.4 38.4-38.4-17.2-38.4-38.4c0-21.2 17.2-38.4 38.4-38.4v0z" />
<glyph unicode="&#xe607;" glyph-name="football" d="M458.48 371.6c-3.36 30.48-30.8 57.92-61.28 61.28-82.8 9.12-190.080-6.32-263.68-80-73.6-73.6-89.040-180.96-79.92-263.68 3.36-30.48 30.8-57.92 61.28-61.28 82.72-9.12 190.080 6.32 263.68 79.92 73.6 73.68 89.040 180.96 79.92 263.76v0zM181.28 202.72c5.92 5.92 15.52 5.92 21.52 0l25.6-25.6c5.92-5.92 5.92-15.52 0-21.52-2.96-2.96-6.88-4.48-10.72-4.48s-7.76 1.52-10.72 4.48l-25.6 25.6c-6.080 6-6.080 15.6-0.080 21.52zM187.92 52.48c-23.2 11.76-44.64 27.28-63.6 46.24s-34.48 40.48-46.32 63.68c1.44 17.52 4.32 36.32 9.28 55.68 1.68 6.56 3.6 13.040 5.68 19.36 7.52-42.080 27.68-80.72 58.48-111.6 30.8-30.8 69.52-50.96 111.52-58.48-26.8-8.8-52.88-13.040-75.040-14.88zM279.52 206.88c-2.96-2.96-6.88-4.48-10.72-4.48s-7.76 1.52-10.72 4.48l-25.6 25.6c-5.92 5.92-5.92 15.52 0 21.52 5.92 5.92 15.6 5.92 21.52 0l25.6-25.6c5.92-6 5.92-15.6-0.080-21.52zM330.72 258.080c-2.96-2.96-6.88-4.48-10.72-4.48s-7.76 1.52-10.72 4.48l-25.6 25.6c-5.92 5.92-5.92 15.52 0 21.52s15.52 5.92 21.52 0l25.6-25.6c5.92-6 5.92-15.6-0.080-21.52zM424.72 242.72c-1.68-6.56-3.6-13.040-5.68-19.36-7.52 42.080-27.68 80.72-58.48 111.6-30.8 30.8-69.52 50.96-111.52 58.48 26.8 8.8 52.88 13.040 75.040 14.88 23.2-11.76 44.64-27.28 63.6-46.24s34.48-40.48 46.32-63.68c-1.44-17.52-4.32-36.32-9.28-55.68v0z" />
<glyph unicode="&#xe608;" glyph-name="poolball" d="M256 435.2c-113.12 0-204.8-91.68-204.8-204.8s91.68-204.8 204.8-204.8 204.8 91.68 204.8 204.8-91.68 204.8-204.8 204.8zM256 140.8c-56.56 0-102.4 45.84-102.4 102.4s45.84 102.4 102.4 102.4 102.4-45.84 102.4-102.4-45.84-102.4-102.4-102.4zM294.48 243.2c8 6.72 12.72 15.68 12.72 25.6 0 21.52-22.48 38.4-51.2 38.4s-51.2-16.88-51.2-38.4c0-9.92 4.8-18.88 12.72-25.6-8-6.72-12.72-15.68-12.72-25.6 0-21.52 22.48-38.4 51.2-38.4s51.2 16.88 51.2 38.4c0 9.92-4.8 18.88-12.72 25.6zM230.4 268.8c0 5.2 10 12.8 25.6 12.8s25.6-7.6 25.6-12.8c0-5.2-10-12.8-25.6-12.8 0 0 0 0 0 0s0 0 0 0c-15.6 0-25.6 7.6-25.6 12.8zM256 204.8c-15.6 0-25.6 7.6-25.6 12.8s10 12.8 25.6 12.8c0 0 0 0 0 0s0 0 0 0c15.6 0 25.6-7.6 25.6-12.8s-10-12.8-25.6-12.8z" />
<glyph unicode="&#xe609;" glyph-name="table-tennis" d="M435.2 371.2c0-21.2-17.2-38.4-38.4-38.4s-38.4 17.2-38.4 38.4 17.2 38.4 38.4 38.4c21.2 0 38.4-17.2 38.4-38.4zM439.28 69.44l-76.24 71.36c-12.72 10-8.8 12.8-3.76 25.6 0 0 0 0.080 0 0.080 24.32 53.76 11.92 122.16-35.6 169.76-31.68 31.68-72.64 47.76-112.4 47.76-35.44 0-69.84-12.8-95.76-38.72-54.96-54.96-50.96-148.16 9.040-208.16 31.68-31.68 72.64-47.76 112.4-47.76 19.84 0 39.44 4 57.36 12.16 0 0 0.080 0 0.080 0.080 6.4 2.48 10.32 4.64 13.92 4.64s6.8-2.16 11.68-8.4l71.36-76.24c3.52-4.48 8.4-6.72 13.36-6.72 4.32 0 8.64 1.68 12.080 5.2l24 23.92c7.52 7.52 6.8 18.96-1.52 25.44v0 0zM182.16 130.96l147.76 147.76c4.4-9.12 7.68-18.64 9.92-28.48l-129.2-129.2c-7.36 1.6-14.64 3.92-21.76 6.88-2.32 0.96-4.56 1.92-6.72 3.040v0 0z" />
<glyph unicode="&#xe610;" glyph-name="tennis" d="M384 140.8c-25.6 25.6-25.6 64-25.6 115.2v0c0 43.040-18.4 88.88-54.4 124.8-35.92 35.92-81.68 54.4-124.72 54.4-34.56 0-67.36-11.92-91.76-36.32-54.8-54.8-46.72-151.76 18.080-216.48 35.92-35.92 81.68-54.4 124.72-54.4 51.28 0 89.68 0 115.28-25.6l76.8-76.8c25.6 0 38.4 12.8 38.4 38.4l-76.8 76.8zM256 382.8c9.84-6.32 19.12-13.76 27.68-22.32s16-17.76 22.32-27.68h-50v50zM153.6 180.4c-9.84 6.32-19.12 13.76-27.68 22.32s-16 17.76-22.32 27.68h50v-50zM153.6 256h-63.28c-5.44 13.36-8.72 27.040-9.92 40.72-0.32 3.52-0.4 7.040-0.4 10.48h73.6v-51.2zM153.6 332.8h-70.72c4.16 17.6 12.56 33.28 25.040 45.68 9.12 9.12 19.92 16.080 32.080 20.8 4.4 1.68 8.88 3.12 13.6 4.16v-70.64zM230.4 156.8c0 0-0.080 0-0.080 0-17.12 0-34.48 3.6-51.12 10.32v63.28h51.2v-73.6zM230.4 256h-51.2v51.2h51.2v-51.2zM230.4 332.8h-51.2v73.6c0 0 0.080 0 0.080 0v0c17.12 0 34.48-3.6 51.12-10.32v-63.28zM301.68 184.72c-9.12-9.12-19.92-16.080-32.080-20.8-4.4-1.68-8.88-3.12-13.6-4.16v70.64h70.72c-4.16-17.6-12.56-33.28-25.040-45.68zM256 256v51.2h63.28c5.44-13.36 8.72-27.040 9.92-40.72 0.32-3.52 0.4-7.040 0.4-10.48h-73.6zM128 89.6c0-21.2-17.2-38.4-38.4-38.4s-38.4 17.2-38.4 38.4 17.2 38.4 38.4 38.4 38.4-17.2 38.4-38.4z" />
<glyph unicode="&#xe611;" glyph-name="racing-flag" d="M204.8 358.4h51.2v-51.2h-51.2v51.2zM256 307.2v-51.2c25.6 0 25.6-25.6 51.2-25.6v51.2c-25.6 0-25.6 25.6-51.2 25.6zM307.2 332.8h51.2v-51.2h-51.2v51.2zM307.2 409.6c-12.8 0-19.2 6.4-25.6 12.8s-12.8 12.8-25.6 12.8h-128v-256h128c12.8 0 19.2-6.4 25.6-12.8s12.8-12.8 25.6-12.8h128v256h-128zM409.6 281.6h-51.2v-51.2h51.2v-51.2h-51.2v51.2h-51.2v-51.2c-12.8 0-19.2 6.4-25.6 12.8s-12.8 12.8-25.6 12.8v51.2h-51.2v-51.2h-51.2v51.2h51.2v51.2h-51.2v51.2h51.2v51.2h51.2v-51.2c12.8 0 19.2-6.4 25.6-12.8s12.8-12.8 25.6-12.8v51.2h51.2v-51.2h51.2v-51.2zM51.2 435.2h51.2v-409.6h-51.2v409.6z" />
<glyph unicode="&#xe612;" glyph-name="volleyball" d="M454.8 279.52c3.92-16 5.92-32.56 5.92-49.12 0-10.4-0.8-20.88-2.32-31.12-0.16-0.88-0.32-1.92-0.48-3.040-25.92 20.16-54.56 36.16-85.28 47.76-34.32 12.96-70.32 20.080-107.28 21.12-14.32 26.48-24.4 54.72-30.080 84.080 10.56 1.12 21.28 1.68 31.84 1.68 34.080 0 67.68-5.68 99.92-16.96 30.8-10.72 59.6-26.24 85.52-46.16 0.64-2.080 1.52-5.12 2.24-8.24zM239.28 434.48c5.52 0.48 11.12 0.72 16.72 0.72 35.76 0 70.96-9.36 101.76-27.040 27.36-15.68 50.8-37.6 68.4-63.76-48.96 26.16-103.36 39.84-158.96 39.84-12.080 0-24.24-0.64-36.4-1.92-1.36 17.040-1.2 34.32 0.4 51.36 3.2 0.32 5.92 0.64 8.080 0.8zM72.8 138.8c-14.32 28.56-21.6 59.36-21.6 91.6 0 42.48 12.8 83.040 37.12 117.52 1.12-30.72 6.32-60.96 15.6-90.24 11.040-34.72 27.52-67.2 49.040-96.8-22.24-15.36-46.48-27.6-72.16-36.48-3.52 6-6.16 10.8-8 14.4zM306.24 94.72c32.96 30.96 58.96 67.6 77.28 108.96 23.52-11.2 45.36-25.44 65.28-42.4-0.48-1.28-0.96-2.64-1.44-3.92-7.28-19.040-17.36-36.96-30-53.12-12.56-16-27.28-30-43.92-41.68-34.56-24.16-75.12-36.96-117.44-36.96-15.76 0-31.36 1.76-46.56 5.28 14.48 6.32 28.56 13.68 42.080 21.92 19.6 12.16 38 26.24 54.72 41.92zM153.92 52.88c-20.080 11.6-37.92 26.4-53.12 44 32.4 12.24 62.4 29.28 89.36 50.88 29.6 23.68 54.64 52.080 74.64 84.56 30.080-0.88 59.6-6.24 87.84-15.92-8.56-19.040-19.040-37.28-31.2-54.080-13.28-18.4-28.72-35.28-45.84-50.32-16.8-14.72-35.36-27.68-55.040-38.48-18.8-10.24-38.72-18.56-59.2-24.72-2.080 1.040-4.8 2.48-7.44 4.080zM179.36 181.44c-42.8 59.12-62.88 131.2-56.88 204.16 2.72 2.32 6.48 5.44 9.84 8 19.52 14.8 41.28 25.92 64.64 32.88 0.24 0.080 0.48 0.16 0.72 0.24-4-61.76 9.36-122.88 38.96-177.6-15.68-25.44-34.96-48.16-57.28-67.68z" />
<glyph unicode="&#xe700;" glyph-name="soccerball" d="M335.6 419.040c25.36-10.72 47.12-25.36 65.44-43.6 18.24-18.24 32.8-40.080 43.6-65.44s16.16-51.84 16.16-79.6-5.44-54.24-16.16-79.6c-10.72-25.36-25.36-47.12-43.6-65.44-18.24-18.24-40.080-32.8-65.44-43.6s-51.84-16.16-79.6-16.16-54.24 5.44-79.6 16.16-47.12 25.36-65.44 43.6c-18.32 18.24-32.8 40.080-43.6 65.44s-16.16 51.84-16.16 79.6 5.44 54.24 16.16 79.6 25.36 47.12 43.6 65.44 40.080 32.8 65.44 43.6 51.84 16.16 79.6 16.16 54.24-5.44 79.6-16.16zM114 339.6l14-6.8v-76.8l-50.4-38c2.16-32.8 12.64-62.8 31.6-90h70l25.6-64v-5.2c16.8-5.040 33.84-7.6 51.2-7.6s34.4 2.56 51.2 7.6v5.2l25.6 64h70c18.96 27.2 29.44 57.2 31.6 90l-50.4 38v76.8l13.6 6.8c-18.4 24-41.76 42.24-70 54.8l-71.6-36-71.6 36c-28.24-12.56-51.76-30.8-70.4-54.8zM320 250.4l-24.4-70.8h-79.2l-24.4 70.8 64 44 64-44z" />
<glyph unicode="&#xe701;" glyph-name="baseball" d="M256 25.6c-113.12 0-204.8 91.68-204.8 204.8s91.68 204.8 204.8 204.8 204.8-91.68 204.8-204.8-91.68-204.8-204.8-204.8zM76.8 230.4c0-48.8 19.52-93.040 51.12-125.28 31.68 32.32 51.28 76.48 51.28 125.28s-19.6 93.040-51.28 125.28c-31.6-32.24-51.12-76.48-51.12-125.28zM147.2 372.72c35.68-36.88 57.6-87.040 57.6-142.32s-22-105.52-57.6-142.32c30.16-23.12 67.92-36.88 108.8-36.88s78.64 13.76 108.8 36.88c-35.68 36.88-57.6 87.040-57.6 142.32s22 105.52 57.6 142.32c-30.16 23.12-67.84 36.88-108.8 36.88s-78.64-13.76-108.8-36.88zM384.080 355.68c-31.68-32.24-51.28-76.48-51.28-125.28s19.6-93.040 51.28-125.28c31.6 32.32 51.12 76.56 51.12 125.28s-19.52 93.040-51.12 125.28z" />
<glyph unicode="&#xe800;" glyph-name="shoe" d="M461.52 280.88l-21.2-20c-0.96-0.96-2.56-1.12-3.68-0.24l-27.040 19.84c4.080 4.24 8.4 8.48 13.36 13.2 3.36 3.2 6.4 6.080 9.6 8.88 2.8 2.56 5.36 4.88 7.76 7.28 1.28 1.2 2.56 2.4 3.84 3.6l17.84-28.96c0.72-1.2 0.48-2.72-0.48-3.6zM432.64 318.080c-5.040-4.8-10.96-10-17.36-16.080-4.56-4.24-9.28-8.88-14.16-14-22.8-24.080-189.76-191.36-224-223.6-34.24-32.4-94.64-54.96-120.32-27.68-25.68 27.2 24.080 72.24 39.84 119.44 15.76 47.28 59.36 108.4 59.36 108.4-6.64 13.92 5.2 26.88 9.84 31.28 1.040 1.040 1.76 1.52 1.76 1.52-8.16 16.16 13.44 36.56 13.44 36.56l17.36 94.88c0.32 1.76 1.12 3.28 2.32 4.32 1.76 1.68 4.32 2.48 6.88 2l38.16-6.72c25.12-4.56-9.92-70.56 0.96-70.72 6.96-0.16 20.24 5.28 32.96 17.28 7.12 6.72 14.080 15.6 19.6 26.64 11.44 22.88-12.72 46.96-4.56 54.72 2.72 2.64 9.44 3.36 22.48 1.6 51.6-7.76 92.8-59.040 121.44-90.24 19.44-21.2 12.24-32.4-6-49.6zM165.28 232.16l-16-26c-1.2-1.84 0.16-4.32 2.48-4.32l114.72 1.6c0.64 0.080 1.36 0.24 1.92 0.8l28.32 26.72c1.92 1.84 0.56 5.040-1.92 4.96l-127.2-2.48c-0.88 0.080-1.76-0.48-2.32-1.28zM351.84 290l-156-4.64c-0.96-0.080-1.84-0.56-2.32-1.36l-15.92-25.92c-1.2-2 0.24-4.4 2.56-4.4l141.68 2.64c0.64 0.080 1.36 0.24 1.92 0.8l30.24 27.76c1.76 1.92 0.4 5.12-2.16 5.12zM195.52 26.32c0.72-1.2 0.48-2.72-0.48-3.6l-21.2-20c-0.96-0.96-2.56-1.12-3.68-0.24l-29.28 21.52c-0.56 0.48-0.96 1.12-1.040 2.080 14.32 6.64 28.16 15.52 40 25.68l15.68-25.44zM228 98.24l16.16-26.080c0.72-1.2 0.48-2.72-0.48-3.6l-21.2-20c-0.96-0.96-2.56-1.12-3.68-0.24l-23.76 17.6c8.48 8.16 19.84 19.36 32.96 32.32zM405.68 230.72c0.72-1.2 0.48-2.72-0.48-3.6l-21.2-20.080c-0.96-0.96-2.56-1.12-3.68-0.24l-25.040 18.56c12.56 12.56 23.92 24 33.040 33.28l17.36-27.92z" />
<glyph unicode="&#xe801;" glyph-name="card" d="M153.6 435.2h204.8c14.16 0 25.6-11.44 25.6-25.6v-358.4c0-14.16-11.44-25.6-25.6-25.6h-204.8c-14.16 0-25.6 11.44-25.6 25.6v358.4c0 14.16 11.44 25.6 25.6 25.6z" />
<glyph unicode="&#xf101;" glyph-name="user-scores" d="M153.6 256h204.8v-51.2h-204.8v51.2zM153.6 332.8h204.8v-51.2h-204.8v51.2zM435.2 435.2h-358.4c-14.16 0-25.6-11.44-25.6-25.6v-281.6c0-14.16 11.44-25.6 25.6-25.6h51.2v-76.8l115.2 76.8h192c14.16 0 25.6 11.44 25.6 25.6v281.6c0 14.16-11.44 25.6-25.6 25.6zM409.6 153.6h-166.4l-64-38.4v38.4h-76.8v230.4h307.2v-230.4z" />
<glyph unicode="&#xf105;" glyph-name="copy" d="M179.2 205.2h-76.8v204.8h153.6v-77.6h51.2v111.2c0 6.16-11.44 17.6-25.6 17.6h-204.8c-14.16 0-25.6-11.44-25.6-25.6v-256c0-14.16 11.44-25.6 25.6-25.6h102.4v51.2zM256 50.8h153.6v204.8h-153.6v-204.8zM435.2 306.8c14.16 0 25.6-11.44 25.6-25.6v-256c0-14.16-11.44-25.6-25.6-25.6h-204.8c-14.16 0-25.6 11.44-25.6 25.6v256c0 14.16 11.44 25.6 25.6 25.6h204.8z" />
<glyph unicode="&#xf108;" glyph-name="calculator" d="M409.6 435.2h-307.2c-14.16 0-25.6-11.44-25.6-25.6v-358.4c0-14.16 11.44-25.6 25.6-25.6h307.2c14.16 0 25.6 11.44 25.6 25.6v358.4c0 14.16-11.44 25.6-25.6 25.6zM179.2 76.8h-51.2v51.2h51.2v-51.2zM179.2 153.6h-51.2v51.2h51.2v-51.2zM179.2 230.4h-51.2v51.2h51.2v-51.2zM281.6 76.8h-51.2v51.2h51.2v-51.2zM281.6 153.6h-51.2v51.2h51.2v-51.2zM281.6 230.4h-51.2v51.2h51.2v-51.2zM384 76.8h-51.2v51.2h51.2v-51.2zM384 153.6h-51.2v51.2h51.2v-51.2zM384 230.4h-51.2v51.2h51.2v-51.2zM384 332.8h-256v51.2h256v-51.2z" />
<glyph unicode="&#xf111;" glyph-name="sportspress" d="M484.88 328.96l-30.72-222.64c-7.68-54.32-36.72-80.64-92.72-80.64h-264.32c-55.92 0-77.84 26.32-70.16 80.64l30.72 222.64c8.24 54.32 37.28 80.64 93.2 80.64h264.32c56-0.080 77.92-26.4 69.68-80.64zM206.88 359.040c-42.88 0-67.44-30.080-73.28-74.48l-4.88-36c-6.32-44.4 10.4-69.68 53.36-69.68h100.16c13.52 0 11.2-11.84 11.2-11.84-1.44-8.8-6.32-13.2-15.12-13.2h-166.96l-10.080-76.96h201.6c42.88 0 65.84 20.48 72.16 64.88l7.28 49.6c6.32 44.4-10.72 64.88-53.6 64.88h-100.72c-8.8 0-12.64 4.4-11.68 13.2 0 0-0.56 11.84 14.8 11.84h166.4l10.88 77.76h-201.52z" />
<glyph unicode="&#xf112;" glyph-name="key" d="M460.8 332.8l-25.6 25.6-26.4-25.6v-51.2l-24.8-25.6-25.6 25.6-25.6-25.6v-51.2l-29.84-29.84c2.72-10.96 4.24-22.4 4.24-34.16 0-77.76-63.040-140.8-140.8-140.8s-140.8 63.040-140.8 140.8 63.040 140.8 140.8 140.8c18.88 0 36.96-3.76 53.44-10.48l188.96 189.68h77.6v-102.4l-25.6-25.6zM128 153.6c-28.24 0-51.2-22.96-51.2-51.2s22.96-51.2 51.2-51.2 51.2 22.96 51.2 51.2-22.96 51.2-51.2 51.2zM422.4 435.2c-4 0-7.52-1.84-9.92-4.72l-151.76-151.76c-2.88-2.32-4.72-5.92-4.72-9.92 0-7.040 5.76-12.8 12.8-12.8 3.52 0 6.72 1.44 9.040 3.76l0.080-0.080 153.6 153.6-0.080 0.080c2.32 2.32 3.76 5.52 3.76 9.12 0 6.96-5.68 12.72-12.8 12.72z" />
<glyph unicode="&#xf113;" glyph-name="update" d="M256 409.6q39.424 0 74.368-16.128t60.032-44.8l-43.776-49.92q-15.872 20.992-39.68 33.28t-50.944 12.288q-40.192 0-71.040-25.088t-39.552-63.232h59.392l-89.6-102.4-89.6 102.4h53.248q6.144 43.008 30.976 78.080t63.36 55.296 82.816 20.224zM256 50.176q-39.68 0-74.496 16.128t-59.904 44.8l43.776 49.92q15.872-20.992 39.68-33.28t50.944-12.288q40.192 0 71.040 25.088t39.552 63.232h-59.392l89.6 102.4 89.6-102.4h-53.248q-4.608-32.256-20.352-60.544t-39.040-48.768-53.888-32.384-63.872-11.904z" />
<glyph unicode="&#xf116;" glyph-name="menu" d="M435.2 25.6h-358.4c-14.16 0-25.6 11.44-25.6 25.6v358.4c0 14.16 11.44 25.6 25.6 25.6h358.4c14.16 0 25.6-11.44 25.6-25.6v-358.4c0-14.16-11.44-25.6-25.6-25.6zM409.6 384h-307.2v-76.8h307.2v76.8zM409.6 256h-307.2v-179.2h307.2v179.2zM179.2 332.8h-51.2v25.6h51.2v-25.6zM230.4 332.8h-25.6v25.6h25.6v-25.6zM281.6 332.8h-25.6v25.6h25.6v-25.6zM332.8 332.8h-25.6v25.6h25.6v-25.6zM384 332.8h-25.6v25.6h25.6v-25.6z" />
<glyph unicode="&#xf145;" glyph-name="calendar" d="M384 435.2h-51.2v-51.2h51.2v51.2zM435.2 435.2h-25.6v-76.8h-102.4v76.8h-102.4v-76.8h-102.4v76.8h-25.6c-14.16 0-25.6-11.44-25.6-25.6v-358.4c0-14.16 11.44-25.6 25.6-25.6h358.4c14.16 0 25.6 11.44 25.6 25.6v358.4c0 14.16-11.44 25.6-25.6 25.6zM409.6 76.8h-307.2v230.4h307.2v-230.4zM179.2 435.2h-51.2v-51.2h51.2v51.2zM281.6 256h-51.2v-51.2h51.2v51.2zM358.4 256h-51.2v-51.2h51.2v51.2zM204.8 179.2h-51.2v-51.2h51.2v51.2zM204.8 256h-51.2v-51.2h51.2v51.2zM281.6 179.2h-51.2v-51.2h51.2v51.2zM358.4 179.2h-51.2v-51.2h51.2v51.2z" />
<glyph unicode="&#xf147;" glyph-name="eye" d="M256 426.667c-92.805 0-185.597-66.375-256-199.111 70.403-132.736 163.195-199.111 256-199.111s185.597 66.375 256 199.111c-70.403 132.736-163.195 199.111-256 199.111zM256 85.334c-67.486 0-135.945 51.43-190.667 142.222 54.722 90.792 123.18 142.222 190.667 142.222s135.945-51.43 190.667-142.222c-54.722-90.792-123.18-142.222-190.667-142.222zM312.889 227.556c0-31.417-25.472-56.889-56.889-56.889s-56.889 25.472-56.889 56.889 25.472 56.889 56.889 56.889 56.889-25.472 56.889-56.889z" />
<glyph unicode="&#xf155;" glyph-name="star-filled" d="M256 460.8l76.8-153.6 153.6-19.2-105.472-118.272 28.672-169.728-153.6 76.8-153.6-76.8 28.928 169.728-105.728 118.272 153.6 19.2z" />
<glyph unicode="&#xf158;" glyph-name="no" d="M398.080 135.68l-56.064-52.736-87.552 93.44-93.184-87.808-52.736 55.808 93.184 87.808-87.552 93.184 55.808 52.736 87.808-93.184 93.184 87.552 52.48-55.808-93.184-87.808z" />
<glyph unicode="&#xf159;" glyph-name="marker" d="M256 435.2q41.728 0 79.616-16.256t65.28-43.648 43.648-65.28 16.256-79.616-16.256-79.616-43.648-65.28-65.28-43.648-79.616-16.256-79.616 16.256-65.28 43.648-43.648 65.28-16.256 79.616 16.256 79.616 43.648 65.28 65.28 43.648 79.616 16.256zM256 102.4q34.816 0 64.256 17.152t46.592 46.592 17.152 64.256-17.152 64.256-46.592 46.592-64.256 17.152-64.256-17.152-46.592-46.592-17.152-64.256 17.152-64.256 46.592-46.592 64.256-17.152z" />
<glyph unicode="&#xf163;" glyph-name="list" d="M153.6 332.8h51.2v-51.2h-51.2v51.2zM153.6 256h51.2v-51.2h-51.2v51.2zM153.6 179.2h51.2v-51.2h-51.2v51.2zM256 179.2h102.4v-51.2h-102.4v51.2zM435.2 435.2h-358.4c-14.16 0-25.6-11.44-25.6-25.6v-358.4c0-14.16 11.44-25.6 25.6-25.6h358.4c14.16 0 25.6 11.44 25.6 25.6v358.4c0 14.16-11.44 25.6-25.6 25.6zM409.6 76.8h-307.2v307.2h307.2v-307.2zM256 256h102.4v-51.2h-102.4v51.2zM256 332.8h102.4v-51.2h-102.4v51.2z" />
<glyph unicode="&#xf164;" glyph-name="blocks" d="M153.6 179.2h204.8v-51.2h-204.8v51.2zM153.6 256h204.8v-51.2h-204.8v51.2zM435.2 435.2h-358.4c-14.16 0-25.6-11.44-25.6-25.6v-358.4c0-14.16 11.44-25.6 25.6-25.6h358.4c14.16 0 25.6 11.44 25.6 25.6v358.4c0 14.16-11.44 25.6-25.6 25.6zM409.6 76.8h-307.2v307.2h307.2v-307.2zM153.6 332.8h204.8v-51.2h-204.8v51.2z" />
<glyph unicode="&#xf171;" glyph-name="undo" d="M441.088 227.84q20.224-47.616 20.224-99.84t-20.224-99.84l-71.168 29.952q14.080 33.792 14.080 69.888 0 36.352-14.080 69.632-13.312 32-38.4 57.088-24.832 24.832-56.832 38.4-33.792 14.080-69.888 14.080v-76.8l-153.6 115.2 153.6 115.2v-76.288q52.224 0 99.84-20.224 46.592-19.712 81.408-55.040 35.328-34.816 55.040-81.408z" />
<glyph unicode="&#xf172;" glyph-name="redo" d="M70.912 227.84q19.712 46.592 55.040 81.408 34.816 35.328 81.408 55.040 47.616 20.224 99.84 20.224v76.288l153.6-115.2-153.6-115.2v76.8q-36.096 0-69.888-14.080-31.744-13.568-56.832-38.4-25.088-25.088-38.4-57.088-14.080-33.28-14.080-69.632 0-36.096 14.080-69.888l-71.168-29.952q-20.224 47.616-20.224 99.84t20.224 99.84z" />
<glyph unicode="&#xf174;" glyph-name="woo" d="M302.72 262.4c0 3.2-1.44 24.080-13.040 24.080-17.44 0-21.76-33.68-21.76-38.56 0-1.6 1.44-27.28 13.040-27.28 15.92 0 21.76 33.68 21.76 41.76v0zM396.96 262.4c0 3.2-1.44 24.080-13.040 24.080-17.36 0-21.76-33.68-21.76-38.56 0-1.6 1.44-27.28 13.040-27.28 15.92 0 21.76 33.68 21.76 41.76v0zM83.2 460.8c-31.84 0-57.6-25.84-57.6-57.76v-303.36c0-31.92 25.76-57.76 57.6-57.76h158.4l57.6-57.76v57.76h129.6c31.84 0 57.6 25.84 57.6 57.76v303.36c0 31.92-25.76 57.76-57.6 57.76h-345.6zM328.8 264c0-25.68-14.48-72.24-47.84-72.24-2.88 0-8.64 1.68-11.84 2.8-15.12 5.2-23.44 23.2-24.4 30.88 0 0-1.44 8.32-1.44 18.96 0 10.72 1.44 21.12 1.44 21.12 7.28 35.28 20.32 49.76 44.96 49.76 27.52 0.080 39.12-27.2 39.12-51.28v0zM244.080 320.16c0-1.6-20.32-65.84-20.32-99.52v-35.28c-1.2-5.6-1.92-11.28-10.16-11.28-21.76 0-41.44 70.64-42.88 75.44-2.88-3.2-29.040-75.44-44.96-75.44-11.6 0-20.32 52.96-21.76 57.76-4.32 25.68-12.16 73.44-12.16 76.64 0 9.6 0.56 18.080 12.16 18.080 2.88 0 10.080-2.8 11.040-8 5.44-28.96 7.76-56.16 13.6-86.72 0.88-1.36 0.72-3.28 2.16-4.88 1.44 4.8 31.2 78.72 44.24 78.72 10.48 0 14.16-20.8 15.6-28.8 2.88-9.6 6.080-25.76 10.48-38.56 0 6.4 5.84 94.72 30.48 94.72 8.72 0 12.48-3.28 12.48-12.88v0zM423.040 264c0-25.68-14.48-72.24-47.84-72.24-2.88 0-8.64 1.68-11.84 2.8-15.12 5.2-23.36 23.2-24.4 30.88 0 0-1.84 8.32-1.84 19.040s1.84 21.040 1.84 21.040c7.28 35.28 20.24 49.76 44.96 49.76 27.52 0.080 39.12-27.2 39.12-51.28v0z" />
<glyph unicode="&#xf179;" glyph-name="yoast-seo" d="M205.2 98.64c6.48 16.56 6.48 34.88 0 51.52l-75.68 194.56h67.6l45.52-142.48 71.36 198h-191.92c-39.84 0-72.48-32.64-72.48-72.48v-192.8c0-39.84 32.64-72.48 72.48-72.48h54c15.2 8.4 23.44 21.52 29.12 36.16zM460.8 327.68c0 39.84-32.64 72.48-72.48 72.48h-2.88l-101.92-272.96c-9.12-25.44-18.48-47.040-28.88-64.88h206.16v265.36zM333.36 474.080l-88.96-247.12-40.16 125.76h-84.96l79.92-205.2c5.76-14.8 5.76-30.96 0-45.76-7.040-18.080-18.080-35.6-50.56-39.92l-6.88-0.96v-72.48h7.92c77.92 0 113.36 54.56 142.64 136.24l130.32 349.44h-89.28zM277.52 130.080c-31.36-87.76-64.48-122.72-119.84-125.68v42.88c35.76 7.12 48.96 29.6 56.32 48.72 7.12 18.4 7.12 38.8 0 57.2l-71.52 183.76h50.32l50.8-159.040 101.040 280.4h55.44l-122.56-328.24z" />
<glyph unicode="&#xf181;" glyph-name="bracket-center" d="M435.2 205.2h51.2c14.16 0 25.6-11.44 25.6-25.6v-102.4c0-14.16-11.44-25.6-25.6-25.6h-51.2c-14.16 0-25.6 11.44-25.6 25.6v25.6h-51.2c-14.16 0-25.6 11.44-25.6 25.6v76.8h-25.6v-25.6c0-14.16-11.44-25.6-25.6-25.6h-51.2c-14.16 0-25.6 11.44-25.6 25.6v25.6h-25.6v-76.8c0-14.16-11.44-25.6-25.6-25.6h-51.2v-25.6c0-14.16-11.44-25.6-25.6-25.6h-51.2c-14.16 0-25.6 11.44-25.6 25.6v102.4c0 14.16 11.44 25.6 25.6 25.6h51.2c14.16 0 25.6-11.44 25.6-25.6v-25.6h25.6v153.6h-25.6v-25.6c0-14.16-11.44-25.6-25.6-25.6h-51.2c-14.16 0-25.6 11.44-25.6 25.6v102.4c0 14.16 11.44 25.6 25.6 25.6h51.2c14.16 0 25.6-11.44 25.6-25.6v-25.6h51.2c14.16 0 25.6-11.44 25.6-25.6v-76.8h25.6v25.6c0 14.16 11.44 25.6 25.6 25.6h51.2c14.16 0 25.6-11.44 25.6-25.6v-25.6h25.6v76.8c0 14.16 11.44 25.6 25.6 25.6h51.2v25.6c0 14.16 11.44 25.6 25.6 25.6h51.2c14.16 0 25.6-11.44 25.6-25.6v-102.4c0-14.16-11.44-25.6-25.6-25.6h-51.2c-14.16 0-25.6 11.44-25.6 25.6v25.6h-25.6v-153.6h25.6v25.6c0 14.16 11.44 25.6 25.6 25.6z" />
<glyph unicode="&#xf182;" glyph-name="trash" d="M288 256h64v-160h-64zM480 384h-128v64c0 17.688-14.312 32-32 32h-128c-17.688 0-32-14.312-32-32v-64h-128c-17.688 0-32-14.312-32-32v-32h32v-320c0-17.688 14.312-32 32-32h384c17.688 0 32 14.312 32 32v320h32v32c0 17.688-14.312 32-32 32zM224 416h64v-32h-64v32zM416 32h-320v288h320v-288zM160 256h64v-160h-64z" />
<glyph unicode="&#xf185;" glyph-name="chart" d="M76.8 102.4h102.4v204.8h-102.4v-204.8zM204.8 102.4h102.4v307.2h-102.4v-307.2zM332.8 307.2v-204.8h102.4v204.8h-102.4z" />
<glyph unicode="&#xf203;" glyph-name="timeline" d="M457.2 70l-54.8-41.6c-2.4-1.84-5.44-2.8-8.96-2.8s-6.56 0.96-8.96 2.8v22.8h-186.88c-4.56-7.76-10.64-13.92-18.4-18.56s-16.24-7.040-25.6-7.040c-14.16 0-26.24 4.96-36.16 15.040s-15.040 22-15.040 36.16c0 14.16 4.96 26.24 15.040 36.16s22 15.040 36.16 15.040c9.36 0 17.84-2.32 25.6-7.040s13.84-10.88 18.4-18.56h186.8v23.2c2.4 1.84 5.44 2.8 8.96 2.8s6.56-0.96 8.96-2.8l54.8-41.6c2.4-1.84 3.6-4.16 3.6-7.040s-1.12-5.12-3.52-6.96zM351.2 336c-2.4-2.16-5.44-3.2-8.96-3.2s-6.56 1.040-8.96 3.2v22.4h-186.88c-4.56-7.76-10.64-13.92-18.4-18.56s-16.24-7.040-25.6-7.040c-14.16 0-26.24 4.96-36.16 15.040s-15.040 22-15.040 36.16 4.96 26.24 15.040 36.16 22 15.040 36.16 15.040c9.36 0 17.84-2.32 25.6-7.040s13.84-10.88 18.4-18.56h186.8v23.2c2.4 1.84 5.44 2.8 8.96 2.8s6.64-0.96 9.040-2.8l54.8-41.6c2.4-1.84 3.6-4.16 3.6-6.8s-1.2-5.040-3.6-7.2l-54.8-41.2zM128 281.6c9.36 0 17.84-2.32 25.6-7.040 7.76-4.64 13.84-10.88 18.4-18.56h91.2c4.56 7.76 10.64 13.92 18.4 18.56s16.24 7.040 25.6 7.040c14.16 0 26.24-4.96 36.16-15.040s15.040-22 15.040-36.16c0-14.16-4.96-26.24-15.040-36.16s-22-15.040-36.16-15.040c-9.36 0-17.84 2.32-25.6 7.040s-13.84 10.88-18.4 18.56h-91.2c-4.56-7.76-10.64-13.92-18.4-18.56s-16.24-7.040-25.6-7.040c-14.16 0-26.24 4.96-36.16 15.040s-15.040 22-15.040 36.16c0 14.16 4.96 26.24 15.040 36.16s22 15.040 36.16 15.040zM307.36 204.8c7.040 0 13.040 2.56 18 7.6s7.36 11.12 7.36 18.24c0 7.040-2.48 13.040-7.36 18s-10.96 7.36-18 7.36-13.12-2.48-18.24-7.36-7.6-10.96-7.6-18c0-7.040 2.56-13.12 7.6-18.24s11.2-7.6 18.24-7.6z" />
<glyph unicode="&#xf227;" glyph-name="whistle" d="M301.84 256c3.44-12.24 5.36-25.12 5.36-38.4 0-77.76-63.040-140.8-140.8-140.8s-140.8 63.040-140.8 140.8 63.040 140.8 140.8 140.8h89.6v-25.6c0-14.16 11.44-25.6 25.6-25.6s25.6 11.44 25.6 25.6v25.6h179.2v-102.4h-184.56z" />
<glyph unicode="&#xf231;" glyph-name="location" d="M495.795 22.989l-34.995 105.011h-38.4l21.325-102.4h-375.45l21.325 102.4h-38.4l-35.021-105.011c-8.883-26.726 6.861-48.589 35.021-48.589h409.6c28.16 0 43.904 21.863 34.995 48.589zM384 358.4c0 70.682-57.293 128-128 128s-128-57.318-128-128c0-122.24 128-256 128-256s128 133.76 128 256zM186.88 356.864c0 38.169 30.925 69.094 69.12 69.094s69.12-30.925 69.12-69.094c0-38.195-30.95-69.12-69.12-69.12s-69.12 30.95-69.12 69.12z" />
<glyph unicode="&#xf237;" glyph-name="minimal" d="M358 204.8v-76.8c0-14.16-11.44-25.6-25.6-25.6h-128v-25.6c0-14.16-11.44-25.6-25.6-25.6h-128v51.2h102.4v51.2h-102.4v51.2h128c14.16 0 25.6-11.44 25.6-25.6v-25.6h102.4v153.6h-102.4v-25.6c0-14.16-11.44-25.6-25.6-25.6h-128v51.2h102.4v51.2h-102.4v51.2h128c14.16 0 25.6-11.44 25.6-25.6v-25.6h128c14.16 0 25.6-11.44 25.6-25.6v-76.8h102.4v-51.2h-102.4z" />
<glyph unicode="&#xf306;" glyph-name="instagram" d="M459.6 145.92c-0.96-21.84-4.48-36.72-9.52-49.68-5.2-13.44-12.24-24.88-23.6-36.24-11.44-11.44-22.8-18.4-36.24-23.6-13.040-5.040-27.92-8.56-49.68-9.52-21.84-0.96-28.8-1.2-84.4-1.2s-62.64 0.24-84.4 1.2c-21.84 0.96-36.72 4.48-49.68 9.52-13.44 5.2-24.88 12.24-36.24 23.6-11.44 11.44-18.4 22.8-23.6 36.24-5.040 13.040-8.56 27.92-9.52 49.68-1.12 21.84-1.36 28.8-1.36 84.4s0.24 62.64 1.2 84.4c0.96 21.84 4.48 36.72 9.52 49.68 5.2 13.44 12.24 24.88 23.6 36.24 11.44 11.44 22.8 18.4 36.24 23.6 13.040 5.040 27.92 8.56 49.68 9.52 21.84 1.2 28.8 1.44 84.4 1.44s62.64-0.24 84.4-1.2c21.84-0.96 36.72-4.48 49.68-9.52 13.52-5.28 24.96-12.24 36.32-23.68 11.44-11.44 18.4-22.8 23.6-36.24 5.040-13.040 8.56-27.92 9.52-49.68 0.96-21.84 1.2-28.8 1.2-84.4s-0.080-62.72-1.12-84.56zM422.72 313.12c-0.96 19.92-4.24 30.88-7.040 38.080-3.76 9.52-8.16 16.4-15.28 23.6s-14 11.52-23.6 15.28c-7.2 2.8-18 6.16-38.080 7.040-21.6 0.96-28.080 1.2-82.72 1.2s-61.12-0.24-82.72-1.2c-19.92-0.96-30.88-4.24-38.080-7.040-9.52-3.76-16.4-8.16-23.6-15.28s-11.52-14-15.28-23.6c-2.8-7.2-6.16-18-7.040-38.080-0.96-21.6-1.2-28.080-1.2-82.72s0.24-61.12 1.2-82.72c0.96-19.92 4.24-30.88 7.040-38.080 3.76-9.52 8.16-16.4 15.28-23.6s14-11.6 23.6-15.28c7.2-2.8 18-6.16 38.080-7.040 21.6-0.96 28.080-1.2 82.72-1.2s61.12 0.24 82.72 1.2c19.92 0.96 30.88 4.24 38.080 7.040 9.52 3.76 16.4 8.16 23.6 15.28s11.6 14 15.28 23.6c2.8 7.2 6.16 18 7.040 38.080 0.96 21.6 1.2 28.080 1.2 82.72s-0.16 61.12-1.2 82.72zM365.36 315.12c-13.52 0-24.56 10.96-24.56 24.56s10.96 24.56 24.56 24.56c13.52 0 24.56-10.96 24.56-24.56s-10.96-24.56-24.56-24.56zM256 125.2c-58.080 0-105.2 47.040-105.2 105.2s47.12 105.2 105.2 105.2 105.2-47.12 105.2-105.2-47.12-105.2-105.2-105.2zM256 298.64c-37.68 0-68.24-30.56-68.24-68.24s30.56-68.24 68.24-68.24 68.24 30.56 68.24 68.24-30.48 68.24-68.24 68.24z" />
<glyph unicode="&#xf307;" glyph-name="tshirt" d="M459.6 307.2h-76.8v-179.2h-256v179.2h-76.8v102.4h132.4c10.56-29.84 38.96-51.2 72.4-51.2s61.84 21.36 72.4 51.2h132.4v-102.4zM382.8 102.4v-51.2h-256v51.2h256z" />
<glyph unicode="&#xf309;" glyph-name="color" d="M435.2 204.8c0-98.96-80.24-179.2-179.2-179.2s-179.2 80.24-179.2 179.2c0 49.52 20.080 94.32 52.48 126.72v0l126.72 126.72 126.72-126.72c32.4-32.4 52.48-77.2 52.48-126.72zM343.28 298l-87.44 87.44-89.040-89.040c-23.84-23.28-38.8-55.6-38.8-91.6 0-70.72 57.28-128 128-128s128 57.28 128 128c0 36.88-15.76 69.84-40.72 93.2zM256 102.4l0.080 246.8 70.4-70.4c19.6-18.64 31.92-44.8 31.92-74 0-56.56-45.84-102.4-102.4-102.4z" />
<glyph unicode="&#xf313;" glyph-name="tournament" d="M384 286v149.2h25.6c14.16 0 25.6-11.44 25.6-25.6v-51.2c0-33.44-21.36-61.84-51.2-72.4zM153.6 51.52h204.8v-51.52h-204.8v51.52zM179.2 76.8l25.6 25.6h25.6v25.6l25.6 25.6 25.6-25.6v-25.6h25.6l25.6-25.6h-153.6zM256 179.2c-56.56 0-102.4 45.84-102.4 102.4v179.2h204.8v-179.2c0-56.56-45.84-102.4-102.4-102.4zM76.8 358.4v51.2c0 14.16 11.44 25.6 25.6 25.6h25.6v-149.2c-29.84 10.56-51.2 38.96-51.2 72.4z" />
<glyph unicode="&#xf314;" glyph-name="grid" d="M358.4 332.8h-51.2v-51.2h51.2v51.2zM204.8 256h-51.2v-51.2h51.2v51.2zM358.4 256h-51.2v-51.2h51.2v51.2zM435.2 435.2h-358.4c-14.16 0-25.6-11.44-25.6-25.6v-358.4c0-14.16 11.44-25.6 25.6-25.6h358.4c14.16 0 25.6 11.44 25.6 25.6v358.4c0 14.16-11.44 25.6-25.6 25.6zM409.6 76.8h-307.2v307.2h307.2v-307.2zM281.6 332.8h-51.2v-51.2h51.2v51.2zM204.8 179.2h-51.2v-51.2h51.2v51.2zM281.6 179.2h-51.2v-51.2h51.2v51.2z" />
<glyph unicode="&#xf316;" glyph-name="import" d="M435.2 256c-14.16 0-25.6-11.44-25.6-25.6v-153.6h-307.2v153.6c0 14.16-11.44 25.6-25.6 25.6s-25.6-11.44-25.6-25.6v-179.2c0-14.16 11.44-25.6 25.6-25.6h358.4c14.16 0 25.6 11.44 25.6 25.6v179.2c0 14.16-11.44 25.6-25.6 25.6zM281.6 256v156.72c0 12.4-11.44 22.48-25.6 22.48s-25.6-10.080-25.6-22.48v-156.72h-76.8l102.4-102.4 102.4 102.4h-76.8z" />
<glyph unicode="&#xf317;" glyph-name="export" d="M435.2 256c-14.16 0-25.6-11.44-25.6-25.6v-153.6h-307.2v153.6c0 14.16-11.44 25.6-25.6 25.6s-25.6-11.44-25.6-25.6v-179.2c0-14.16 11.44-25.6 25.6-25.6h358.4c14.16 0 25.6 11.44 25.6 25.6v179.2c0 14.16-11.44 25.6-25.6 25.6zM230.4 179.2c0-14.16 11.44-25.6 25.6-25.6s25.6 11.44 25.6 25.6v153.6h76.8l-102.4 102.4-102.4-102.4h76.8v-153.6z" />
<glyph unicode="&#xf319;" glyph-name="globe" d="M256 25.6c-113.12 0-204.8 91.68-204.8 204.8s91.68 204.8 204.8 204.8 204.8-91.68 204.8-204.8-91.68-204.8-204.8-204.8zM256 384c-84.8 0-153.6-68.8-153.6-153.6s68.8-153.6 153.6-153.6 153.6 68.8 153.6 153.6-68.8 153.6-153.6 153.6zM331.28 138.080l-4.48-2.64-12.96-7.92-7.68-5.6c-5.68-2.72-11.68-4.88-17.76-6.72v7.52l-2.16 17.36c0 0-1.040 10-2.72 12.64-1.6 2.64-5.44 6.32-9.2 7.92s-6.48 1.6-8.64 4.16c-2.16 2.64-3.84 7.36-6.48 11.6-2.72 4.24-6 8.48-6 10.56s0 23.76 0 23.76l2.72 20 5.92 4.24 7.040 7.92 4.88 1.6 16.8-3.12h11.84l4.88-10 11.36-8.96 7.040-11.040 9.2-3.12h10.32l7.040-8.48 4.32-8.96 1.6-6.32v-10.56l-1.12-6.24c-6.8-11.28-15.52-21.2-25.76-29.6v0 0zM289.36 319.92l-11.92-6.32-4.32-12.16-7.040-6.32h-23.36l-10.8-4.24-0.56-8.4-4.32-6.88-1.12-7.36 2.16-6.32 2.72-6.32c0 0 6.56-7.36 0-12.64 0 0-8.16 0-9.76 2.64s-13.52 10-15.76 12.16c-2.16 2.080-9.2 4.16-9.2 4.16l-8.64 3.2-8.16 0.56 0.56 11.040-0.56 9.44-3.28 6.88-9.2 6.88-0.56 7.36 1.12 4.080c21.92 21.2 52.16 34.4 85.6 34.4 18.88 0 36.48-4.56 52.4-12l-0.32-2.8-15.68-11.040z" />
<glyph unicode="&#xf321;" glyph-name="history" d="M287.411 440.32c-113.817 0-206.362-91.187-209.126-204.672h-62.925l94.183-104.986 94.157 104.986h-73.113c2.765 84.506 71.885 152.192 156.826 152.192 86.682 0 156.928-70.477 156.928-157.44s-70.246-157.44-156.928-157.44c-34.765 0-66.867 11.366-92.877 30.541l-35.993-38.502c35.533-27.878 80.256-44.519 128.87-44.519 115.558 0 209.255 93.978 209.255 209.92-0.026 115.942-93.721 209.92-209.255 209.92zM268.8 343.040v-120.064l76.928-76.928 25.344 25.344-66.432 66.432v105.216h-35.84z" />
<glyph unicode="&#xf322;" glyph-name="archive" d="M409.84 332.8c0 25.76-25.6 25.76-25.6 25.76h-256.24c0 0-25.6 0-25.6-25.76v-25.76h307.44v25.76zM332.96 410h-153.68c0 0-25.6 0-25.6-25.76h204.88c0 25.76-25.6 25.76-25.6 25.76s0 0 0 0zM449.36 309.44c-14.32 12.72-14.32 12.72-14.32 12.72v-40.72h-358v40.72c0 0 0 0-14.32-12.72s-24.56-16.16-18.8-43.12c5.68-26.8 33.44-174 37.6-193.92 4.56-21.84 29.52-21.52 29.52-21.52h289.92c0 0 25.040-0.32 29.52 21.52 4.16 19.92 31.84 167.040 37.6 193.92 5.84 26.96-4.4 30.4-18.72 43.12v0 0zM358.64 179.2c0 0 0-25.76-25.68-25.76h-153.76c-25.6 0-25.6 25.76-25.6 25.76v51.52h26.24v-50.88h153.28v50.88h25.52v-51.52z" />
<glyph unicode="&#xf325;" glyph-name="bracket" d="M434.8 154h-102.4c-14.16 0-25.6 11.44-25.6 25.6v25.6h-25.6v-76.8c0-14.16-11.44-25.6-25.6-25.6h-51.2v-25.6c0-14.16-11.44-25.6-25.6-25.6h-102.4c-14.16 0-25.6 11.44-25.6 25.6v102.4c0 14.16 11.44 25.6 25.6 25.6h102.4c14.16 0 25.6-11.44 25.6-25.6v-25.6h25.6v153.6h-25.6v-25.6c0-14.16-11.44-25.6-25.6-25.6h-102.4c-14.16 0-25.6 11.44-25.6 25.6v102.4c0 14.16 11.44 25.6 25.6 25.6h102.4c14.16 0 25.6-11.44 25.6-25.6v-25.6h51.2c14.16 0 25.6-11.44 25.6-25.6v-76.8h25.6v25.6c0 14.16 11.44 25.6 25.6 25.6h102.4c14.16 0 25.6-11.44 25.6-25.6v-102.4c0-14.16-11.44-25.6-25.6-25.6z" />
<glyph unicode="&#xf328;" glyph-name="friendly" horiz-adv-x="439" d="M324 179.28c-7.040-23.040-20.16-41.6-39.44-55.68-19.2-14.080-40.96-21.12-65.12-21.12s-45.92 7.040-65.12 21.12c-19.2 14.080-32.4 32.64-39.44 55.68-1.52 4.8-1.12 9.36 1.12 13.84 2.32 4.48 5.92 7.44 10.88 8.96 4.8 1.52 9.36 1.12 13.84-1.12 4.48-2.32 7.44-5.92 8.96-10.88 4.8-15.2 13.6-27.6 26.4-36.96 12.88-9.44 27.28-14.16 43.28-14.16s30.4 4.72 43.28 14.16c12.88 9.44 21.68 21.76 26.4 36.96 1.52 4.96 4.56 8.56 9.12 10.88s9.2 2.64 14 1.12c4.8-1.52 8.32-4.56 10.56-8.96 2.4-4.48 2.8-9.12 1.28-13.84v0zM182.88 303.52c0-10.080-3.6-18.72-10.72-25.84s-15.76-10.72-25.84-10.72c-10.080 0-18.72 3.6-25.84 10.72s-10.72 15.76-10.72 25.84 3.6 18.72 10.72 25.84c7.12 7.12 15.76 10.72 25.84 10.72s18.72-3.6 25.84-10.72c7.12-7.12 10.72-15.76 10.72-25.84v0zM329.12 303.52c0-10.080-3.6-18.72-10.72-25.84s-15.76-10.72-25.84-10.72c-10.080 0-18.72 3.6-25.84 10.72s-10.72 15.76-10.72 25.84 3.6 18.72 10.72 25.84c7.12 7.12 15.76 10.72 25.84 10.72s18.72-3.6 25.84-10.72c7.2-7.12 10.72-15.76 10.72-25.84v0zM402.32 230.4c0 24.8-4.88 48.4-14.56 70.96s-22.72 42-39.040 58.32-35.68 29.28-58.32 39.040-46.24 14.56-71.040 14.56c-24.8 0-48.4-4.88-71.040-14.56-22.56-9.68-42-22.72-58.32-39.040s-29.12-35.68-38.88-58.32-14.56-46.16-14.56-70.96c0-24.8 4.88-48.4 14.56-71.040s22.72-42 39.040-58.32c16.32-16.32 35.68-29.28 58.32-39.040s46.24-14.56 71.040-14.56 48.4 4.88 71.040 14.56c22.56 9.68 42 22.72 58.32 39.040s29.28 35.68 39.040 58.32c9.52 22.64 14.4 46.32 14.4 71.040v0zM438.88 230.4c0-39.84-9.84-76.56-29.44-110.16s-46.24-60.24-79.84-79.84-70.32-29.44-110.16-29.44-76.56 9.84-110.16 29.44-60.24 46.24-79.84 79.84-29.44 70.32-29.44 110.16 9.84 76.56 29.44 110.16 46.24 60.24 79.84 79.84 70.32 29.44 110.16 29.44 76.48-9.84 110.16-29.44 60.24-46.24 79.84-79.84c19.6-33.6 29.44-70.32 29.44-110.16v0z" />
<glyph unicode="&#xf330;" glyph-name="book" d="M426.189 354.739l-230.349 118.758c-31.565 16.614-93.773-15.488-111.641-43.75-7.962-12.647-7.398-21.76-7.398-26.931l2.841-268.16c0.179-5.709 7.373-13.363 13.491-17.152 12.775-7.834 206.336-128.64 211.789-132.070 2.944-1.843 6.451-2.688 9.882-2.688 2.918 0 5.863 0.64 8.525 1.971 5.837 2.867 9.472 8.397 9.472 14.464v281.626c0 5.862-3.43 11.264-9.011 14.208l-209.357 116.889c2.355 4.608 11.674 14.336 28.8 23.296 18.048 9.472 31.539 5.888 34.637 4.685 0 0 200.96-107.546 207.104-110.745 6.118-3.2 6.247-3.687 6.247-9.139 0-5.478 0-267.264 0-267.264 0-13.337 13.517-18.791 23.475-18.791 9.907 0 20.505 9.728 20.505 18.791v287.795c0 5.862-3.456 11.289-9.011 14.208z" />
<glyph unicode="&#xf332;" glyph-name="league" d="M435.2 332.8h-0.8l0.8-177.6v-1.6c0-6.96-2.56-12.96-7.6-18s-11.040-7.6-18-7.6h-307.2c-7.2 0-13.28 2.56-18.24 7.6s-7.36 11.040-7.36 18v1.6l0.8 177.6h-0.8c-7.2 0-13.28 2.48-18.24 7.36s-7.36 11.040-7.36 18.24 2.48 13.28 7.36 18.24 10.96 7.36 18.080 7.36 13.12-2.48 18.24-7.36 7.52-11.040 7.52-18.24c0-8.8-3.6-15.76-10.8-20.8l87.6-124 66.4 147.2c-4.56 1.84-8.16 4.96-11.040 9.2s-4.16 8.96-4.16 14c0 7.2 2.48 13.28 7.36 18.24s10.96 7.36 18 7.36 13.12-2.48 18.24-7.36 7.6-11.040 7.6-18.24c0-5.040-1.44-9.76-4.16-14s-6.48-7.36-11.040-9.2l66.4-147.2 87.6 124c-7.2 5.040-10.8 12-10.8 20.8 0 7.2 2.48 13.28 7.36 18.24s10.96 7.36 18 7.36 13.12-2.48 18.24-7.36 7.6-11.040 7.6-18.24-2.56-13.28-7.6-18.24-11.040-7.36-18-7.36zM76.8 102.4h358.4c6.96 0 12.96-2.48 18-7.36s7.6-10.96 7.6-18-2.56-13.12-7.6-18.24-11.040-7.6-18-7.6h-358.4c-6.96 0-12.96 2.56-18 7.6s-7.6 11.12-7.6 18.16 2.48 13.040 7.36 18 11.040 7.44 18.24 7.44z" />
<glyph unicode="&#xf334;" glyph-name="shield" d="M425.76 154.48c-6.16-15.76-14-29.84-23.2-42s-20.24-24.080-33.040-35.68c-12.8-11.52-24.56-21.2-35.36-28.88-10.88-7.6-22.080-14.88-33.84-21.68-11.84-6.8-20.16-11.44-25.12-13.92-4.96-2.4-8.96-4.24-11.92-5.52-2.24-1.2-4.64-1.68-7.28-1.68s-5.040 0.64-7.28 1.68c-3.040 1.28-6.88 3.12-11.92 5.52s-13.36 7.040-25.12 13.92c-11.76 6.8-23.040 14-33.84 21.68-10.88 7.68-22.56 17.28-35.36 28.88-12.8 11.52-23.84 23.36-33.040 35.68s-16.96 26.24-23.2 42c-6.32 15.76-9.44 31.76-9.44 47.76v215.040c0 4.8 1.68 9.12 5.28 12.64s7.76 5.28 12.64 5.28h322.56c4.8 0 9.12-1.68 12.64-5.28s5.28-7.76 5.28-12.64v-215.040c0-16-3.2-32-9.44-47.76v0zM384 384h-256v-181.92c0-33.36 22.4-67.52 67.12-102.32 17.92-14 38.24-27.040 60.88-38.96v0 0 0 0c22.64 11.92 42.96 24.96 60.88 38.96 44.72 34.88 67.12 68.96 67.12 102.32v181.92zM304.72 122.8c-14.32-11.6-30.56-22.4-48.72-32.24v0 0 267.68h102.4v-150.72c0-27.6-17.92-55.84-53.68-84.72v0z" />
<glyph unicode="&#xf335;" glyph-name="cancel" d="M256 455.111c-125.681 0-227.555-101.874-227.555-227.555s101.875-227.555 227.555-227.555 227.555 101.875 227.555 227.555-101.875 227.555-227.555 227.555zM85.334 227.556c0 36.82 11.833 70.847 31.736 98.764l237.694-237.694c-27.916-19.903-61.944-31.736-98.764-31.736-94.111 0-170.667 76.555-170.667 170.667zM394.93 128.792l-237.694 237.694c27.917 19.903 61.944 31.736 98.763 31.736 94.111 0 170.667-76.555 170.667-170.667 0-36.82-11.833-70.847-31.736-98.763z" />
<glyph unicode="&#xf338;" glyph-name="staff" d="M409.6 25.6h-307.2c-14.16 0-25.6 11.44-25.6 25.6v358.4c0 14.16 11.44 25.6 25.6 25.6h307.2c14.16 0 25.6-11.44 25.6-25.6v-358.4c0-14.16-11.44-25.6-25.6-25.6zM332.8 384h-153.6l51.2-51.2-51.2-204.8 76.8-76.8 76.8 76.8-51.2 204.8 51.2 51.2z" />
<glyph unicode="&#xf453;" glyph-name="cake" d="M434.8 51.12h-358.4c-14.16 0-25.6 11.44-25.6 25.6s11.44 25.6 25.6 25.6v78.24c16.24-16.64 38.88-27.040 64-27.040 22.080 0 42 8.24 57.6 21.52 15.6-13.2 35.52-21.52 57.6-21.52s42 8.24 57.6 21.52c15.6-13.2 35.52-21.52 57.6-21.52 25.12 0 47.76 10.4 64 27.040v-78.24c14.16 0 25.6-11.44 25.6-25.6 0-14.080-11.44-25.6-25.6-25.6zM370.8 179.12c-25.52 0-47.28 15.040-57.6 36.56-10.32-21.6-32.080-36.56-57.6-36.56s-47.28 15.040-57.6 36.56c-10.32-21.6-32.080-36.56-57.6-36.56-32.4 0-58.96 24.16-63.12 55.44 2.080 12 12.080 21.36 24.72 21.36h307.2c12.64 0 22.64-9.28 24.72-21.36-4.16-31.2-30.72-55.44-63.12-55.44v0zM255.76 294.24c-15.2 0-26.48 3.2-33.84 9.6s-11.040 18-11.040 34.72c0 6.64 1.6 14.64 4.88 23.84s6.8 17.68 10.8 25.28c3.92 7.6 8.48 15.52 13.6 23.84s8.72 13.92 10.8 16.8 3.68 5.2 4.88 6.96l4.64-6.64c3.040-4.24 6.8-10.080 11.28-17.28s8.88-14.96 13.2-23.2 8.080-16.8 11.12-25.92 4.64-16.96 4.64-23.6c0-16.72-3.68-28.32-11.040-34.72-7.44-6.48-18.72-9.68-33.92-9.68v0z" />
<glyph unicode="&#xf464;" glyph-name="edit" d="M435.2 25.6h-358.4c-14.16 0-25.6 11.44-25.6 25.6v358.4c0 14.16 11.44 25.6 25.6 25.6h256l-51.2-51.2h-179.2v-307.2h307.2v179.2l51.2 51.2v-256c0-14.16-11.44-25.6-25.6-25.6zM153.6 128v76.8l230.4 230.4h25.6l51.2-51.2v-25.6l-230.4-230.4h-76.8zM268.8 217.6l140.8 140.8-25.6 25.6-140.8-140.8 25.6-25.6zM204.8 204.8l-25.6-25.6v-25.6h25.6l25.6 25.6-25.6 25.6z" />
<glyph unicode="&#xf469;" glyph-name="time" d="M188.8 313.76c-11.44-7.040 30.64-108.56 40.88-125.12 8.96-14.56 28-18.96 42.48-10.080 14.56 9.040 19.040 28 10.080 42.48-10.16 16.56-82 99.76-93.44 92.72v0zM180.24 424.88c23.76 8.24 49.2 12.88 75.76 12.88s52-4.56 75.76-12.88c8.4-2.88 19.6 2.96 14.64 15.68-3.6 9.2-7.12 18.24-8.48 21.92-3.36 8.64-15.36 15.84-20.56 17.040-19.76 4.48-40.24 6.96-61.28 6.96s-41.52-2.48-61.36-6.96c-5.2-1.2-17.2-8.32-20.56-17.040-1.44-3.68-4.88-12.64-8.48-21.92-5.040-12.72 6.080-18.56 14.56-15.68v0zM488.88 404.8c-4.88 5.92-10.16 11.68-15.68 17.2s-11.28 10.72-17.12 15.68c-3.92 3.28-15.44 6-22.72-1.28s-42.16-42.16-42.16-42.16c10.32-7.36 20.32-15.52 29.6-24.72s17.36-19.28 24.72-29.6c0 0 34.88 34.88 42.16 42.16 7.2 7.36 4.48 18.88 1.2 22.72v0zM256 412.16c-114.56 0-207.36-92.8-207.36-207.36-0.080-114.56 92.72-207.36 207.36-207.36 114.48 0 207.36 92.8 207.36 207.36 0 114.48-92.88 207.36-207.36 207.36v0zM256 48.64c-86.24 0-156.16 69.92-156.16 156.16s69.84 156.16 156.16 156.16c86.24 0 156.16-69.92 156.16-156.16s-69.92-156.16-156.16-156.16z" />
<glyph unicode="&#xf481;" glyph-name="clipboard" d="M376.16 25.6h-238.080c-20.48 0-35.84 15.36-35.84 35.84v312.32c0 10.24 5.12 20.48 12.8 28.16l28.16-66.56h225.28l28.16 69.12c7.68-5.12 12.8-15.36 12.8-28.16v-312.32c2.56-23.040-15.36-38.4-33.28-38.4zM358.24 307.2h-204.8v-230.4h204.8v230.4zM332.64 230.4h-153.6v25.6h153.6v-25.6zM332.64 179.2h-153.6v25.6h153.6v-25.6zM332.64 128h-153.6v25.6h153.6v-25.6zM163.68 358.4l-23.040 51.2h56.32l7.68 20.48 10.24 30.72h81.92l10.24-30.72 10.24-20.48h56.32l-23.040-51.2h-186.88z" />
<glyph unicode="&#xf487;" glyph-name="heart" d="M256 48.128q61.44 25.856 107.648 67.968t72.576 91.008q24.832 46.848 27.264 89.344t-19.072 70.656q-36.864 46.336-95.488 44.544-25.344-0.768-49.664-10.88t-43.264-26.496q-18.944 16.384-43.264 26.496t-49.664 10.88q-58.624 1.792-95.488-44.544-21.504-28.16-19.072-70.656t27.776-89.344q25.856-48.896 72.064-91.008t107.648-67.968z" />
<glyph unicode="&#xf488;" glyph-name="sponsor" d="M405.2 82.080l-91.2 71.6h-134.8v-76.8c0-7.2-2.56-13.28-7.6-18.24s-11.040-7.36-18-7.36h-25.6c-7.2 0-13.28 2.48-18.24 7.36s-7.36 11.040-7.36 18.24v76.8c-7.2 0-13.28 2.48-18.24 7.36s-7.36 11.040-7.36 18.24v102.4c0 7.2 2.48 13.28 7.36 18.24s11.040 7.36 18.24 7.36h211.6l91.2 71.6c2.96 3.2 6.88 4.88 11.84 4.96s9.2-0.88 12.8-3.040c3.6-2.16 5.44-4.8 5.44-8v-285.2c0-3.2-1.76-5.84-5.44-8s-7.84-3.040-12.8-2.8c-5.040 0.4-8.88 2.080-11.84 5.28v0zM268.8 307.28h-51.2c3.44 0 6.48-1.28 8.96-3.84s3.84-5.52 3.84-8.96v-128c0-3.44-1.28-6.48-3.84-8.96s-5.52-3.84-8.96-3.84h51.2c-3.76 0-6.8 1.28-9.2 3.84s-3.6 5.52-3.6 8.96v128c0 3.44 1.2 6.48 3.6 8.96s5.36 3.84 9.2 3.84v0 0 0z" />
<glyph unicode="&#xf489;" glyph-name="statistics" d="M153.6 333.2h128v-51.2h-128v51.2zM153.6 256.4h51.2v-51.2h-51.2v51.2zM153.6 179.6h102.4v-51.2h-102.4v51.2zM281.6 179.6h76.8v-51.2h-76.8v51.2zM435.2 435.6h-358.4c-14.16 0-25.6-11.44-25.6-25.6v-358.4c0-14.16 11.44-25.6 25.6-25.6h358.4c14.16 0 25.6 11.44 25.6 25.6v358.4c0 14.16-11.44 25.6-25.6 25.6zM409.6 77.2h-307.2v307.2h307.2v-307.2zM230.4 256.4h128v-51.2h-128v51.2zM307.2 333.2h51.2v-51.2h-51.2v51.2z" />
<glyph unicode="&#xf503;" glyph-name="sub" d="M409.6 353.28h-256v51.2l-102.4-87.040 102.4-81.92v46.080h256v71.68zM460.8 138.24l-102.4 87.040v-51.2h-256v-71.68h256v-46.080l102.4 81.92z" />
<glyph unicode="&#xf504;" glyph-name="popup" d="M435.2 435.2h-204.8c-14.16 0-25.6-11.44-25.6-25.6v-204.8c0-14.16 11.44-25.6 25.6-25.6h204.8c14.16 0 25.6 11.44 25.6 25.6v204.8c0 14.16-11.44 25.6-25.6 25.6zM409.6 230.4h-153.6v153.6h153.6v-153.6zM256 76.8h-153.6v153.6h51.2v51.2h-76.8c-14.16 0-25.6-11.44-25.6-25.6v-204.8c0-14.16 11.44-25.6 25.6-25.6h204.8c14.16 0 25.6 11.44 25.6 25.6v76.8h-51.2v-51.2z" />
<glyph unicode="&#xf507;" glyph-name="buddypress" d="M512 230.4c0 27.84-4.32 54.72-12.96 80.8s-20.8 49.52-36.64 70.56c-15.76 20.96-34.16 39.36-55.2 55.2s-44.48 28-70.56 36.64-52.8 12.8-80.64 12.8-54.72-4.32-80.8-12.96-49.52-20.8-70.56-36.64-39.36-34.16-55.2-55.2-28-44.48-36.64-70.56-12.8-52.8-12.8-80.64 4.32-54.72 12.96-80.8 20.8-49.52 36.64-70.56 34.16-39.36 55.2-55.2c20.96-15.76 44.48-28 70.56-36.64s52.8-12.8 80.64-12.8 54.72 4.32 80.8 12.96 49.52 20.8 70.56 36.64c20.96 15.76 39.36 34.16 55.2 55.2 15.76 20.96 28 44.48 36.64 70.56 8.48 25.92 12.8 52.8 12.8 80.64v0zM256 460.56c31.2 0 61.040-6.080 89.44-18.16s52.88-28.48 73.44-49.040c20.56-20.56 36.88-45.040 49.040-73.44s18.24-58.32 18.24-89.52-6.080-61.040-18.16-89.44-28.48-52.88-49.040-73.44c-20.56-20.56-45.040-36.88-73.44-49.040s-58.32-18.24-89.52-18.24-61.040 6.080-89.44 18.16-52.88 28.48-73.44 49.040c-20.64 20.56-36.96 45.040-49.12 73.52s-18.16 58.24-18.16 89.44 6.080 61.040 18.16 89.44 28.48 52.88 49.040 73.44 45.040 36.88 73.44 49.040 58.32 18.24 89.52 18.24v0zM241.946 434.656c-82.675-6.113-153.988-61.481-179.942-139.728-11.535-35.019-13.459-74.143-5.243-110.735 16.342-73.007 74.372-133.265 146.646-152.216 20.363-5.327 29.452-6.375 53.398-6.375s33.035 1.048 53.398 6.375c47.891 12.576 90.714 43.665 118.593 86.106 16.867 25.675 27.529 54.93 31.723 86.893 1.747 13.624 1.312 44.8-0.875 57.638-3.67 21.047-9.439 39.124-18.789 58.075-36.793 74.843-115.796 120.080-198.908 113.966zM313.608 391.778c23.596-4.192 44.746-22.792 53.135-46.896 2.272-6.637 2.709-9.083 3.059-19.387 0.349-10.043 0.088-13.012-1.486-19.212-5.419-21.833-20.712-39.91-40.813-48.294-5.505-2.359-11.711-4.192-11.711-3.58 0 0.175 1.312 3.057 2.971 6.287 12.060 23.928 12.060 53.272 0 77.112-9.613 19.213-29.189 35.979-49.291 42.181-2.622 0.874-5.419 1.746-6.118 2.009-1.835 0.611 6.729 4.891 15.293 7.686 11.014 3.577 22.288 4.276 34.959 2.093zM260.298 366.888c27.092-7.337 47.28-29.082 51.998-55.978 1.574-8.821 0.699-24.279-1.747-32.138-6.555-20.609-19.227-35.019-38.716-44.102-9.526-4.454-17.654-6.113-29.277-6.113-31.024 0-56.806 18.951-66.856 49.166-2.446 7.337-2.709 9.083-2.709 20.26-0.088 10.306 0.262 13.274 1.923 19.213 7.778 26.723 29.277 46.111 56.806 51.088 5.857 1.139 22.462 0.265 28.578-1.395zM369.54 246.898c26.305-8.297 42.298-28.383 49.377-62.004 1.835-8.995 4.108-33.884 3.233-36.154-0.525-1.223-2.622-1.397-15.906-1.397-8.39 0-15.293 0.262-15.293 0.524 0 3.668-3.233 20.61-5.243 27.334-8.652 29.169-27.529 51.175-49.552 57.726-2.096 0.611-3.758 1.484-3.758 1.833 0 0.437 2.798 3.93 6.292 7.859l6.292 7.161 9.263-0.524c5.858-0.263 11.365-1.136 15.297-2.358zM220.709 202.359l22.548-22.269 8.041 7.86c4.457 4.28 15.993 15.545 25.607 24.977l17.478 17.204 6.555-0.786c18.091-2.271 35.307-10.13 47.805-22.008 14.856-14.060 23.334-31.526 26.916-55.192 1.312-8.733 1.835-34.409 0.786-39.649l-0.525-2.707h-132.75c-93.861 0-132.838 0.262-133.188 0.96-1.224 1.834-1.573 25.937-0.525 35.544 5.156 48.993 31.811 78.247 75.682 82.964 8.476 0.874 4.806 3.582 35.569-26.897z" />
<glyph unicode="&#xf508;" glyph-name="availability" d="M384 435.2h-51.2v-51.2h51.2v51.2zM435.2 435.2h-25.6v-76.8h-102.4v76.8h-102.4v-76.8h-102.4v76.8h-25.6c-14.16 0-25.6-11.44-25.6-25.6v-358.4c0-14.16 11.44-25.6 25.6-25.6h358.4c14.16 0 25.6 11.44 25.6 25.6v358.4c0 14.16-11.44 25.6-25.6 25.6zM409.6 76.8h-307.2v230.4h307.2v-230.4zM179.2 435.2h-51.2v-51.2h51.2v51.2zM230.4 115.2l-76.4 76.4 29.12 29.12 47.28-47.28 98.8 98.8 29.2-29.040-128-128z" />
<glyph unicode="&#xf509;" glyph-name="scoreboard" d="M435.2 25.6h-358.4c-14.16 0-25.6 11.44-25.6 25.6v358.4c0 14.16 11.44 25.6 25.6 25.6h358.4c14.16 0 25.6-11.44 25.6-25.6v-358.4c0-14.16-11.44-25.6-25.6-25.6zM409.6 384h-307.2v-307.2h307.2v307.2zM217.6 307.2l12.8-12.8v-51.2l-12.8-12.8 12.8-12.8v-51.2l-12.8-12.8h-64l-12.8 12.8v51.2l12.8 12.8-12.8 12.8v51.2l12.8 12.8h64zM166.4 179.2h38.4v38.4h-38.4v-38.4zM166.4 243.2h38.4v38.4h-38.4v-38.4zM256 268.8c7.040 0 12.8-5.76 12.8-12.8s-5.76-12.8-12.8-12.8-12.8 5.76-12.8 12.8 5.76 12.8 12.8 12.8zM256 217.6c7.040 0 12.8-5.76 12.8-12.8s-5.76-12.8-12.8-12.8-12.8 5.76-12.8 12.8 5.76 12.8 12.8 12.8zM358.4 307.2l12.8-12.8v-51.2l-12.8-12.8 12.8-12.8v-51.2l-12.8-12.8h-64l-12.8 12.8v51.2l12.8 12.8-12.8 12.8v51.2l12.8 12.8h64zM307.2 179.2h38.4v38.4h-38.4v-38.4zM307.2 243.2h38.4v38.4h-38.4v-38.4z" />
<glyph unicode="&#xf524;" glyph-name="ticket" d="M125.6 190.96l90.96-90.96 166.8 166.88-90.96 90.88-166.8-166.8zM489.12 315.84l-38.72 38.64c-7.36-4-15.76-6.32-24.8-6.32-28.56 0-51.76 23.2-51.76 51.84 0 8.96 2.24 17.44 6.32 24.8l-38.72 38.72c-10.080 10.080-26.56 10.080-36.64 0l-281.92-281.84c-10.080-10.080-10.080-26.56 0-36.64l38.72-38.72c7.36 4 15.84 6.32 24.8 6.32 28.64 0 51.84-23.2 51.84-51.76 0-8.96-2.24-17.44-6.32-24.8l38.72-38.72c10.080-10.080 26.56-10.080 36.64 0l281.84 281.76c10 10.16 10 26.64 0 36.72v0zM216.56 58.4l-132.56 132.56 208.48 208.4 132.48-132.48-208.4-208.48z" />
<glyph unicode="&#xf526;" glyph-name="wordpay" d="M491.84 260.88v0l-82.32-142.56c-14.24-24.56-40.8-41.12-71.28-41.12-27.84 0-52.4 13.84-67.28 35.040l78.48 135.84c19.28 33.36 19.28 74.72 0.080 108-6.32 10.88-14.4 20.4-23.76 28.32h94.96c28.4 0 56-14.72 71.28-41.12 15.2-26.48 14.080-57.76-0.16-82.4zM327.28 260.88v0l-71.28-123.44v-0.080l-71.28 123.44c-14.24 24.64-15.28 55.92-0.080 82.4 15.2 26.4 42.88 41.12 71.28 41.12v0h0.16c28.4 0 56-14.72 71.28-41.12 15.2-26.4 14.16-57.68-0.080-82.32zM162.56 248.080l78.4-135.84c-14.88-21.2-39.44-35.040-67.28-35.040-30.48 0-57.12 16.56-71.28 41.2v0l-82.24 142.4c-14.24 24.72-15.36 56-0.080 82.4 15.2 26.4 42.88 41.12 71.28 41.12v0h94.88c-9.36-7.92-17.44-17.44-23.76-28.32-19.2-33.28-19.2-74.64 0.080-107.92z" />
</font>
</defs>
</svg>
